<svg xmlns="http://www.w3.org/2000/svg" version="1.1" xmlns:xlink="http://www.w3.org/1999/xlink" xmlns:svgjs="http://svgjs.com/svgjs" width="1000" height="1000"><rect width="1000" height="1000" rx="200" ry="200" fill="#270089"></rect><g transform="matrix(3.3333333333333335,0,0,3.3333333333333335,100.13766225179035,99.26383717854816)"><svg xmlns="http://www.w3.org/2000/svg" version="1.1" xmlns:xlink="http://www.w3.org/1999/xlink" xmlns:svgjs="http://svgjs.com/svgjs" width="240" height="240"><svg width="240" height="240" viewBox="0 0 240 240" fill="none" xmlns="http://www.w3.org/2000/svg">
<path d="M83.7168 192.32L91.5482 184.434H86.0695L83.7168 192.32Z" fill="white"></path>
<path d="M172.867 67.0519L177.462 80.721L215.106 42.8169L237.882 65.7507V47.4437L215.106 24.51L172.867 67.0519Z" fill="white"></path>
<path d="M132.561 115.756L130.617 109.583L109.619 130.726L113.872 144.239H114.38L134.991 123.485L132.561 115.756Z" fill="white"></path>
<path d="M237.881 187.871V159.854L223.975 173.868L237.881 187.871Z" fill="white"></path>
<path d="M2 187.871V159.854L15.9066 173.868L2 187.871Z" fill="white"></path>
<path d="M141.529 144.239L139.11 136.543L131.467 144.239H141.529Z" fill="white"></path>
<path d="M181.791 93.5671L182.885 96.8258L186.463 107.169L215.657 77.7737L237.881 100.151V81.8444L215.657 59.4668L181.791 93.5671Z" fill="white"></path>
<path d="M86.0698 184.434L83.717 192.32L81.1323 200.984L77.2221 214.041H62.1447L38.7168 237.631L53.2419 237.52H57.0085L109.73 184.434H86.0698Z" fill="white"></path>
<path d="M194.692 30.1491L185.601 20.9956L164.504 42.2388L169.11 55.9078L194.692 30.1491Z" fill="white"></path>
<path d="M127.049 98.2605L122.675 84.3579L114.976 92.1211L106.957 118.492L127.049 98.2605Z" fill="white"></path>
<path d="M218.397 199.727L237.881 219.347V201.04L208.721 171.666L218.397 199.727Z" fill="white"></path>
<path d="M190.174 117.936L194.857 131.527L215.17 111.073L235.384 131.427L208.2 158.798L217.291 167.952L237.88 147.209V115.633L215.17 92.7664L190.174 117.936Z" fill="white"></path>
<path d="M125.459 184.434L72.627 237.631L83.8494 237.52H90.9186L143.64 184.434H125.459Z" fill="white"></path>
<path d="M189.29 213.196L165.145 237.52H172.004H183.326L207.472 213.196H189.29Z" fill="white"></path>
<path d="M217.613 213.196H217.414L199.332 213.096L223.588 237.52H237.882V233.605L217.613 213.196Z" fill="white"></path>
<path d="M158.607 199.727L154.321 185.969L103.014 237.631L118.787 237.52H121.305L156.508 202.063L158.607 199.727Z" fill="white"></path>
<path d="M162.804 213.196L161.457 208.87L132.893 237.631L144.734 237.52H151.184L175.341 213.196H162.804Z" fill="white"></path>
<path d="M90.4636 3H72.6248L52.5879 23.2644L60.6734 29.9265L62.8052 31.5726" fill="white"></path>
<path d="M107.122 3L82.7109 26.5343H93.3259H102.019L125.336 3.05561L107.122 3Z" fill="white"></path>
<path d="M145.859 3H137.564L114.213 26.5343H128.628H132.394L155.69 3H145.859Z" fill="white"></path>
<path d="M173.761 3L167.465 3.01112L144.104 26.5343H159.225L160.02 28.8255L185.569 3H173.761Z" fill="white"></path>
<path d="M237.881 33.53V26.1672L234.225 29.8486L237.881 33.53Z" fill="white"></path>
<path d="M202.513 21.6518L215.27 8.79465L228.481 22.0967L237.572 12.9432L227.752 3.05566H202.789L193.422 12.4983L202.513 21.6518Z" fill="white"></path>
<path d="M223.256 130.959L214.154 121.806L197.354 138.734L202.037 152.314L223.256 130.959Z" fill="white"></path>
<path d="M67.4115 67.0519L62.8054 80.721L25.1727 42.8169L2.39648 65.7507V47.4437L25.1727 24.51L67.4115 67.0519Z" fill="white"></path>
<path d="M58.4866 93.5671L57.3931 96.8258L53.8142 107.169L24.6204 77.7737L2.39648 100.151V81.8444L24.6204 59.4668L58.4866 93.5671Z" fill="white"></path>
<path d="M45.5879 30.1491L54.6785 20.9956L75.7648 42.2388L71.1698 55.9078L45.5879 30.1491Z" fill="white"></path>
<path d="M21.8811 199.727L2.39648 219.347V201.04L31.5572 171.666L21.8811 199.727Z" fill="white"></path>
<path d="M50.1029 117.935L45.4195 131.527L25.0954 111.073L4.89282 131.426L32.0763 158.798L22.9857 167.951L2.39648 147.209V115.633L25.0954 92.7661L50.1029 117.935Z" fill="white"></path>
<path d="M27.2383 213.196H27.4371L45.5189 213.096L21.2736 237.52H6.96941H2.39648L27.2383 213.196Z" fill="white"></path>
<path d="M2.39648 33.53V26.1672L6.05262 29.8486L2.39648 33.53Z" fill="white"></path>
<path d="M37.7661 21.6518L25.0083 8.79465L11.7977 22.0967L2.70703 12.9432L12.5267 3.05566H37.49L46.8567 12.4983L37.7661 21.6518Z" fill="white"></path>
<path d="M17.0215 130.959L26.1121 121.806L42.9237 138.734L38.2403 152.314L17.0215 130.959Z" fill="white"></path>
<path d="M100.308 140.391L99.1367 144.239H113.872L109.619 130.726L104.096 136.287L100.308 140.391Z" fill="white"></path>
<path d="M217.412 213.196H217.611L217.512 213.096L217.412 213.196Z" fill="white"></path>
<path d="M196.625 237.631H211.747L203.827 229.156L196.625 237.631Z" fill="white"></path>
</svg></svg></g></svg>