<svg width="405" height="56" viewBox="0 0 405 56" fill="none" xmlns="http://www.w3.org/2000/svg">
<g clip-path="url(#clip0_404_2449)">
<path d="M92.5164 55.448C92.5164 55.448 92.5164 55.568 92.4681 55.592C92.2025 55.712 91.8162 55.76 91.5024 55.76C90.5366 55.76 89.6675 55.3279 89.6675 54.2718C89.6675 53.6717 90.0055 53.2396 90.3676 53.0236C90.7539 52.8076 91.0919 52.7836 91.4299 52.7836C91.6955 52.7836 92.0576 52.8316 92.1301 52.8556C92.2025 52.8556 92.3474 52.9036 92.4439 52.9036C92.4922 52.9036 92.4922 52.9036 92.4922 52.9516C92.4922 52.9996 92.4681 53.0956 92.4681 53.5757C92.4681 53.6237 92.4681 53.6717 92.4198 53.6717C92.3956 53.6717 92.3715 53.6717 92.3715 53.6237C92.3715 53.5277 92.3474 53.4317 92.2266 53.3116C92.1059 53.1916 91.8162 53.0236 91.3575 53.0236C91.1402 53.0236 90.8746 53.0236 90.5849 53.2396C90.3676 53.4077 90.2228 53.6957 90.2228 54.1758C90.2228 54.9919 90.7539 55.592 91.5989 55.592C91.6955 55.592 91.7921 55.592 91.8886 55.544C91.9369 55.52 91.9611 55.472 91.9611 55.4239V55.0639C91.9611 54.8719 91.9611 54.7278 91.9611 54.6078C91.9611 54.4878 91.9128 54.4398 91.7921 54.3918C91.7679 54.3918 91.6955 54.3918 91.6472 54.3918C91.6231 54.3918 91.5748 54.3918 91.5748 54.3438C91.5748 54.3198 91.5989 54.3198 91.6714 54.3198C91.8886 54.3198 92.1542 54.3198 92.2749 54.3198C92.3957 54.3198 92.6129 54.3198 92.7337 54.3198C92.7819 54.3198 92.8061 54.3198 92.8061 54.3438C92.8061 54.3438 92.8061 54.3918 92.7578 54.3918C92.7095 54.3918 92.6854 54.3918 92.6612 54.3918C92.5647 54.3918 92.5164 54.4638 92.5164 54.6078C92.5164 54.7278 92.5164 54.8719 92.5164 55.0639V55.472V55.448Z" fill="white"/>
<path d="M96.3308 54.3437C96.3308 53.5036 95.8238 52.9756 95.196 52.9756C94.7615 52.9756 94.2303 53.2156 94.2303 54.1517C94.2303 54.9438 94.689 55.5439 95.4375 55.5439C95.7272 55.5439 96.3549 55.4239 96.3549 54.3197M93.6509 54.2477C93.6509 53.5996 94.1096 52.7595 95.3167 52.7595C96.3308 52.7595 96.9343 53.3116 96.9343 54.1757C96.9343 55.0398 96.3066 55.7359 95.2685 55.7359C94.1096 55.7359 93.6509 54.9198 93.6509 54.2477" fill="white"/>
<path d="M98.6247 55.1119C98.6247 55.3519 98.6247 55.448 98.7696 55.496C98.8662 55.544 98.9627 55.544 99.0593 55.544C99.2766 55.544 99.5422 55.4239 99.5422 55.0159C99.5422 54.8479 99.4698 54.5358 99.18 54.3438C99.1076 54.2958 98.9869 54.2478 98.842 54.2478H98.673C98.673 54.2478 98.673 54.2478 98.673 54.2718V55.1359L98.6247 55.1119ZM98.6247 53.9837C98.6247 53.9837 98.6247 54.0317 98.6489 54.0317C98.673 54.0317 98.7455 54.0317 98.842 54.0317C98.9869 54.0317 99.0835 54.0317 99.1559 53.9597C99.2525 53.8877 99.349 53.7437 99.349 53.5517C99.349 53.2876 99.2042 52.9756 98.842 52.9756C98.7937 52.9756 98.7213 52.9756 98.673 52.9756C98.6489 52.9756 98.6489 52.9996 98.6489 53.0476V53.9597L98.6247 53.9837ZM98.1177 53.9117C98.1177 53.3356 98.1177 53.2156 98.1177 53.0956C98.1177 52.9756 98.0694 52.9276 97.9487 52.8796C97.9246 52.8796 97.8522 52.8796 97.8039 52.8796C97.7556 52.8796 97.7314 52.8796 97.7314 52.8316C97.7314 52.7836 97.7556 52.7836 97.828 52.7836C98.0453 52.7836 98.2867 52.7836 98.3592 52.7836C98.5523 52.7836 98.8179 52.7836 98.9627 52.7836C99.687 52.7836 99.8078 53.1436 99.8078 53.3597C99.8078 53.6477 99.5905 53.8877 99.3732 54.0317C99.687 54.1278 100.097 54.4158 100.097 54.8479C100.097 55.2559 99.7836 55.688 99.0352 55.688C98.9869 55.688 98.8662 55.688 98.7213 55.688C98.5765 55.688 98.4557 55.688 98.3833 55.688C98.335 55.688 98.2626 55.688 98.166 55.688C98.0694 55.688 97.9729 55.688 97.9004 55.688C97.8522 55.688 97.828 55.688 97.828 55.64C97.828 55.64 97.828 55.592 97.9004 55.592C97.9729 55.592 97.997 55.592 98.0453 55.592C98.1177 55.592 98.1419 55.496 98.166 55.3999C98.166 55.2319 98.166 54.9439 98.166 54.5838V53.9117H98.1177Z" fill="white"/>
<path d="M101.28 53.9356C101.28 53.3595 101.28 53.2395 101.28 53.1195C101.28 52.9995 101.232 52.9515 101.135 52.9275C101.087 52.9275 101.039 52.9275 100.99 52.9275C100.942 52.9275 100.918 52.9275 100.918 52.8795C100.918 52.8795 100.942 52.8555 101.015 52.8555C101.159 52.8555 101.425 52.8555 101.546 52.8555C101.642 52.8555 101.908 52.8555 102.053 52.8555C102.101 52.8555 102.125 52.8555 102.125 52.8795C102.125 52.9035 102.125 52.9275 102.053 52.9275C102.004 52.9275 101.98 52.9275 101.932 52.9275C101.835 52.9275 101.787 52.9995 101.787 53.1435C101.787 53.2635 101.787 53.3835 101.787 53.9596V54.6317C101.787 54.9918 101.787 55.3038 101.787 55.4718C101.787 55.5679 101.835 55.6399 101.956 55.6639C102.004 55.6639 102.101 55.6639 102.149 55.6639C102.198 55.6639 102.222 55.6879 102.222 55.7119C102.222 55.7359 102.198 55.7599 102.149 55.7599C101.884 55.7599 101.618 55.7599 101.522 55.7599C101.425 55.7599 101.159 55.7599 101.015 55.7599C100.966 55.7599 100.942 55.7599 100.942 55.7119C100.942 55.7119 100.942 55.6639 101.015 55.6639C101.063 55.6639 101.111 55.6639 101.159 55.6639C101.232 55.6639 101.256 55.5919 101.28 55.4718C101.28 55.3278 101.28 55.0158 101.28 54.6557V53.9836V53.9356Z" fill="white"/>
<path d="M103.549 53.9357C103.549 53.3597 103.549 53.2396 103.549 53.1196C103.549 52.9996 103.501 52.9516 103.38 52.9036C103.356 52.9036 103.284 52.9036 103.236 52.9036C103.187 52.9036 103.163 52.9036 103.163 52.8556C103.163 52.8076 103.187 52.8076 103.26 52.8076C103.477 52.8076 103.718 52.8076 103.839 52.8076C103.96 52.8076 104.853 52.8076 104.926 52.8076C104.998 52.8076 105.07 52.8076 105.095 52.7836C105.095 52.7836 105.143 52.7836 105.167 52.7836C105.191 52.7836 105.191 52.7836 105.191 52.8316C105.191 52.8556 105.191 52.9036 105.167 53.0716C105.167 53.1196 105.167 53.2876 105.167 53.3116C105.167 53.3116 105.167 53.3837 105.119 53.3837C105.095 53.3837 105.095 53.3837 105.095 53.3356C105.095 53.3116 105.095 53.2396 105.095 53.1916C105.07 53.1196 105.022 53.0716 104.829 53.0476C104.757 53.0476 104.298 53.0476 104.201 53.0476C104.201 53.0476 104.177 53.0476 104.177 53.0716V54.0077C104.177 54.0077 104.177 54.0558 104.201 54.0558C104.298 54.0558 104.805 54.0558 104.901 54.0558C104.998 54.0558 105.046 54.0558 105.095 54.0077C105.119 53.9837 105.143 53.9597 105.167 53.9597C105.167 53.9597 105.191 53.9597 105.191 54.0077C105.191 54.0317 105.191 54.1038 105.167 54.2958C105.167 54.3678 105.167 54.5358 105.167 54.5598C105.167 54.5838 105.167 54.6558 105.119 54.6558C105.095 54.6558 105.07 54.6558 105.07 54.6318C105.07 54.5838 105.07 54.5358 105.07 54.4878C105.046 54.4158 104.998 54.3438 104.853 54.3438C104.781 54.3438 104.322 54.3438 104.225 54.3438C104.225 54.3438 104.225 54.3438 104.225 54.3918V54.7038C104.225 54.8239 104.225 55.1599 104.225 55.2799C104.225 55.544 104.346 55.592 104.757 55.592C104.853 55.592 105.022 55.592 105.143 55.544C105.239 55.496 105.288 55.4239 105.312 55.2559C105.312 55.2079 105.312 55.2079 105.36 55.2079C105.384 55.2079 105.384 55.2559 105.384 55.3039C105.384 55.3999 105.36 55.64 105.336 55.736C105.312 55.832 105.264 55.832 105.119 55.832C104.829 55.832 104.588 55.832 104.394 55.832C104.201 55.832 104.056 55.832 103.936 55.832C103.887 55.832 103.791 55.832 103.718 55.832C103.622 55.832 103.525 55.832 103.453 55.832C103.405 55.832 103.38 55.832 103.38 55.784C103.38 55.784 103.38 55.736 103.453 55.736C103.501 55.736 103.549 55.736 103.598 55.736C103.67 55.736 103.694 55.64 103.718 55.544C103.718 55.3759 103.718 55.0879 103.718 54.7278V54.0558L103.549 53.9357Z" fill="white"/>
<path d="M107.026 54.2237C107.026 54.2237 107.026 54.2717 107.05 54.2957C107.123 54.3197 107.243 54.3437 107.34 54.3437C107.485 54.3437 107.557 54.3437 107.63 54.2717C107.75 54.1757 107.895 54.0077 107.895 53.7196C107.895 53.1915 107.533 53.0475 107.292 53.0475C107.195 53.0475 107.099 53.0475 107.05 53.0475C107.026 53.0475 107.026 53.0475 107.026 53.0955V54.2237V54.2237ZM106.519 53.9357C106.519 53.3596 106.519 53.2396 106.519 53.1195C106.519 52.9995 106.471 52.9515 106.35 52.9035C106.326 52.9035 106.254 52.9035 106.205 52.9035C106.157 52.9035 106.133 52.9035 106.133 52.8555C106.133 52.8075 106.157 52.8075 106.229 52.8075C106.447 52.8075 106.688 52.8075 106.761 52.8075C106.905 52.8075 107.268 52.8075 107.388 52.8075C107.63 52.8075 107.919 52.8075 108.137 52.9755C108.257 53.0475 108.426 53.2396 108.426 53.5036C108.426 53.7916 108.257 54.0317 107.871 54.3437C108.233 54.7758 108.499 55.1118 108.74 55.3519C108.958 55.5679 109.102 55.5919 109.175 55.5919C109.223 55.5919 109.247 55.5919 109.271 55.5919C109.296 55.5919 109.32 55.6159 109.32 55.6399C109.32 55.6639 109.296 55.6879 109.247 55.6879H108.861C108.644 55.6879 108.523 55.6879 108.426 55.6159C108.257 55.5199 108.113 55.3519 107.895 55.0638C107.75 54.8478 107.581 54.6078 107.533 54.5357C107.533 54.5357 107.485 54.5117 107.461 54.5117H107.099C107.099 54.5117 107.074 54.5117 107.074 54.5357V54.5837C107.074 54.9438 107.074 55.2318 107.074 55.3999C107.074 55.5199 107.099 55.5919 107.219 55.5919C107.268 55.5919 107.364 55.5919 107.412 55.5919C107.437 55.5919 107.461 55.6159 107.461 55.6399C107.461 55.6639 107.437 55.6879 107.388 55.6879C107.147 55.6879 106.833 55.6879 106.761 55.6879C106.688 55.6879 106.423 55.6879 106.278 55.6879C106.229 55.6879 106.205 55.6879 106.205 55.6399C106.205 55.6399 106.205 55.5919 106.278 55.5919C106.326 55.5919 106.374 55.5919 106.423 55.5919C106.495 55.5919 106.519 55.4959 106.543 55.3999C106.543 55.2318 106.543 54.9438 106.543 54.5837V53.9117L106.519 53.9357Z" fill="white"/>
<path d="M110.31 55.1839C110.31 55.472 110.358 55.568 110.455 55.592C110.527 55.592 110.6 55.616 110.672 55.616C110.72 55.616 110.745 55.616 110.745 55.664C110.745 55.688 110.72 55.712 110.648 55.712C110.382 55.712 110.213 55.712 110.141 55.712C110.117 55.712 109.924 55.712 109.706 55.712C109.658 55.712 109.61 55.712 109.61 55.664C109.61 55.64 109.634 55.616 109.682 55.616C109.731 55.616 109.803 55.616 109.875 55.616C109.972 55.592 109.996 55.472 109.996 55.1599V52.9036C109.996 52.9036 110.069 52.7836 110.093 52.7836C110.141 52.7836 110.189 52.8316 110.262 52.9036C110.31 52.9516 110.914 53.5517 111.493 54.1278C111.759 54.3918 112.29 54.9199 112.338 54.9919L112.29 53.2876C112.29 53.0476 112.241 52.9996 112.145 52.9516C112.097 52.9516 112 52.9516 111.928 52.9516C111.855 52.9516 111.855 52.9516 111.855 52.9036C111.855 52.8796 111.903 52.8796 111.952 52.8796C112.169 52.8796 112.362 52.8796 112.459 52.8796C112.507 52.8796 112.652 52.8796 112.845 52.8796C112.893 52.8796 112.942 52.8796 112.942 52.9036C112.942 52.9276 112.942 52.9516 112.869 52.9516C112.821 52.9516 112.797 52.9516 112.748 52.9516C112.652 52.9756 112.604 53.0476 112.604 53.2636L112.555 55.664C112.555 55.664 112.531 55.784 112.483 55.784C112.41 55.784 112.362 55.736 112.314 55.712C112.072 55.472 111.565 55.0159 111.155 54.6078C110.72 54.1998 110.31 53.7437 110.238 53.6717L110.286 55.2319L110.31 55.1839Z" fill="white"/>
<path d="M116.515 54.3437C116.515 53.5036 116.008 52.9756 115.356 52.9756C114.921 52.9756 114.39 53.2156 114.39 54.1517C114.39 54.9438 114.849 55.5439 115.597 55.5439C115.887 55.5439 116.515 55.4239 116.515 54.3197M113.811 54.2477C113.811 53.5996 114.269 52.7595 115.476 52.7595C116.466 52.7595 117.094 53.3116 117.094 54.1757C117.094 55.0398 116.466 55.7359 115.428 55.7359C114.269 55.7359 113.811 54.9198 113.811 54.2477" fill="white"/>
<path d="M120.764 54.3438C120.764 54.7518 120.764 55.0399 120.764 55.1119C120.764 55.2079 120.764 55.3519 120.812 55.3759C120.86 55.4479 121.029 55.52 121.319 55.52C121.681 55.52 121.947 55.448 122.188 55.2559C122.454 55.0399 122.526 54.7038 122.526 54.3198C122.526 53.8397 122.333 53.5277 122.164 53.3597C121.802 53.0476 121.367 52.9996 121.053 52.9996C120.981 52.9996 120.836 52.9996 120.812 53.0236C120.788 53.0236 120.764 53.0476 120.764 53.0956C120.764 53.2156 120.764 53.5277 120.764 53.8397V54.3198V54.3438ZM120.232 53.9117C120.232 53.3356 120.232 53.2156 120.232 53.0956C120.232 52.9756 120.184 52.9276 120.063 52.8796C120.039 52.8796 119.967 52.8796 119.919 52.8796C119.87 52.8796 119.846 52.8796 119.846 52.8316C119.846 52.7836 119.87 52.7836 119.943 52.7836C120.136 52.7836 120.401 52.7836 120.522 52.7836C120.643 52.7836 120.933 52.7836 121.174 52.7836C121.681 52.7836 122.333 52.7836 122.768 53.2156C122.961 53.4077 123.154 53.7197 123.154 54.1758C123.154 54.6558 122.937 55.0159 122.719 55.2319C122.55 55.4239 122.116 55.688 121.391 55.688C121.246 55.688 121.077 55.688 120.908 55.688C120.739 55.688 120.619 55.664 120.498 55.664C120.45 55.664 120.377 55.664 120.281 55.664C120.184 55.664 120.088 55.664 120.015 55.664C119.967 55.664 119.943 55.664 119.943 55.616C119.943 55.616 119.943 55.568 120.015 55.568C120.088 55.568 120.112 55.568 120.16 55.568C120.232 55.568 120.257 55.472 120.281 55.3759C120.281 55.2079 120.281 54.9199 120.281 54.5598V53.8877L120.232 53.9117Z" fill="white"/>
<path d="M124.385 53.9357C124.385 53.3597 124.385 53.2396 124.385 53.1196C124.385 52.9996 124.337 52.9516 124.216 52.9036C124.192 52.9036 124.119 52.9036 124.047 52.9036C123.999 52.9036 123.975 52.9036 123.975 52.8556C123.975 52.8076 123.999 52.8076 124.071 52.8076C124.288 52.8076 124.53 52.8076 124.651 52.8076C124.771 52.8076 125.665 52.8076 125.737 52.8076C125.809 52.8076 125.882 52.8076 125.906 52.7836C125.906 52.7836 125.954 52.7836 125.978 52.7836C125.978 52.7836 126.003 52.7836 126.003 52.8316C126.003 52.8556 126.003 52.9036 125.978 53.0716C125.978 53.1196 125.978 53.2876 125.978 53.3116C125.978 53.3116 125.978 53.3837 125.93 53.3837C125.906 53.3837 125.906 53.3837 125.906 53.3356C125.906 53.3116 125.906 53.2396 125.882 53.1916C125.858 53.1196 125.809 53.0716 125.616 53.0476C125.544 53.0476 125.085 53.0476 124.989 53.0476C124.989 53.0476 124.964 53.0476 124.964 53.0716V54.0077C124.964 54.0077 124.964 54.0558 124.989 54.0558C125.085 54.0558 125.592 54.0558 125.689 54.0558C125.785 54.0558 125.834 54.0558 125.882 54.0077C125.906 53.9837 125.93 53.9597 125.954 53.9597C125.978 53.9597 125.978 53.9597 125.978 54.0077C125.978 54.0317 125.978 54.1038 125.954 54.2958C125.954 54.3678 125.954 54.5358 125.954 54.5598C125.954 54.5838 125.954 54.6558 125.906 54.6558C125.882 54.6558 125.882 54.6558 125.882 54.6318C125.882 54.5838 125.882 54.5358 125.882 54.4878C125.882 54.4158 125.809 54.3438 125.665 54.3438C125.592 54.3438 125.158 54.3438 125.037 54.3438C125.037 54.3438 125.037 54.3438 125.037 54.3918V54.7038C125.037 54.8239 125.037 55.1599 125.037 55.2799C125.037 55.544 125.158 55.592 125.568 55.592C125.665 55.592 125.834 55.592 125.93 55.544C126.027 55.496 126.075 55.4239 126.099 55.2559C126.099 55.2079 126.099 55.2079 126.147 55.2079C126.172 55.2079 126.172 55.2559 126.172 55.3039C126.172 55.3999 126.147 55.64 126.123 55.736C126.099 55.832 126.051 55.832 125.906 55.832C125.616 55.832 125.375 55.832 125.182 55.832C124.989 55.832 124.844 55.832 124.723 55.832C124.675 55.832 124.602 55.832 124.506 55.832C124.409 55.832 124.313 55.832 124.24 55.832C124.192 55.832 124.168 55.832 124.168 55.784C124.168 55.784 124.168 55.736 124.24 55.736C124.288 55.736 124.337 55.736 124.385 55.736C124.482 55.736 124.482 55.64 124.506 55.544C124.506 55.3759 124.506 55.0879 124.506 54.7278V54.0558L124.385 53.9357Z" fill="white"/>
<path d="M127.862 54.6078C127.862 55.0878 127.862 55.3279 127.958 55.3999C128.031 55.4479 128.175 55.4719 128.489 55.4719C128.707 55.4719 128.851 55.4719 128.948 55.3759C128.996 55.3279 129.045 55.2079 129.045 55.1358C129.045 55.0878 129.045 55.0638 129.093 55.0638C129.117 55.0638 129.117 55.1118 129.117 55.1598C129.117 55.2079 129.093 55.4959 129.045 55.5919C129.02 55.6639 128.996 55.6879 128.803 55.6879C128.513 55.6879 128.296 55.6879 128.079 55.6879C127.886 55.6879 127.717 55.6879 127.548 55.6879C127.499 55.6879 127.403 55.6879 127.33 55.6879C127.234 55.6879 127.137 55.6879 127.065 55.6879C127.017 55.6879 126.992 55.6879 126.992 55.6399C126.992 55.6399 126.992 55.5919 127.065 55.5919C127.113 55.5919 127.161 55.5919 127.21 55.5919C127.282 55.5919 127.306 55.4959 127.33 55.3999C127.33 55.2319 127.33 54.9438 127.33 54.5838V53.9117C127.33 53.3356 127.33 53.2156 127.33 53.0956C127.33 52.9755 127.282 52.9275 127.161 52.8795C127.137 52.8795 127.089 52.8795 127.041 52.8795C126.992 52.8795 126.968 52.8795 126.968 52.8315C126.968 52.7835 126.992 52.8075 127.041 52.8075C127.234 52.8075 127.475 52.8075 127.596 52.8075C127.693 52.8075 128.006 52.8075 128.175 52.8075C128.224 52.8075 128.272 52.8075 128.272 52.8315C128.272 52.8555 128.248 52.8795 128.2 52.8795C128.151 52.8795 128.103 52.8795 128.055 52.8795C127.958 52.8795 127.91 52.9515 127.91 53.0956C127.91 53.2156 127.91 53.3356 127.91 53.9117V54.5838L127.862 54.6078Z" fill="white"/>
<path d="M132.087 53.9357C132.087 53.3597 132.087 53.2396 132.087 53.1196C132.087 52.9996 132.038 52.9516 131.918 52.9036C131.894 52.9036 131.821 52.9036 131.749 52.9036C131.7 52.9036 131.676 52.9036 131.676 52.8556C131.676 52.8076 131.7 52.8076 131.773 52.8076C131.99 52.8076 132.232 52.8076 132.352 52.8076C132.473 52.8076 133.366 52.8076 133.439 52.8076C133.511 52.8076 133.584 52.8076 133.608 52.7836H133.656C133.656 52.7836 133.68 52.7836 133.68 52.8316C133.68 52.8556 133.68 52.9036 133.656 53.0716C133.656 53.1196 133.656 53.2876 133.656 53.3116C133.656 53.3116 133.656 53.3837 133.608 53.3837C133.584 53.3837 133.584 53.3837 133.584 53.3356C133.584 53.3116 133.584 53.2396 133.559 53.1916C133.535 53.1196 133.487 53.0716 133.294 53.0476C133.221 53.0476 132.763 53.0476 132.666 53.0476C132.666 53.0476 132.642 53.0476 132.642 53.0716V54.0077C132.642 54.0077 132.642 54.0558 132.666 54.0558C132.763 54.0558 133.27 54.0558 133.366 54.0558C133.463 54.0558 133.511 54.0558 133.559 54.0077C133.584 53.9837 133.608 53.9597 133.632 53.9597C133.656 53.9597 133.656 53.9597 133.656 54.0077C133.656 54.0317 133.656 54.1038 133.632 54.2958C133.632 54.3678 133.632 54.5358 133.632 54.5598C133.632 54.5838 133.632 54.6558 133.584 54.6558C133.559 54.6558 133.559 54.6558 133.559 54.6318C133.559 54.5838 133.559 54.5358 133.559 54.4878C133.559 54.4158 133.487 54.3438 133.342 54.3438C133.27 54.3438 132.811 54.3438 132.714 54.3438C132.714 54.3438 132.714 54.3438 132.714 54.3918V54.7038C132.714 54.8239 132.714 55.1599 132.714 55.2799C132.714 55.544 132.835 55.592 133.246 55.592C133.342 55.592 133.511 55.592 133.608 55.544C133.704 55.496 133.753 55.4239 133.777 55.2559C133.777 55.2079 133.777 55.2079 133.825 55.2079C133.849 55.2079 133.849 55.2559 133.849 55.3039C133.849 55.3999 133.825 55.64 133.801 55.736C133.777 55.832 133.728 55.832 133.584 55.832C133.294 55.832 133.052 55.832 132.859 55.832C132.666 55.832 132.521 55.832 132.401 55.832C132.352 55.832 132.28 55.832 132.183 55.832C132.087 55.832 131.99 55.832 131.918 55.832C131.869 55.832 131.845 55.832 131.845 55.784C131.845 55.784 131.845 55.736 131.918 55.736C131.966 55.736 132.014 55.736 132.063 55.736C132.135 55.736 132.159 55.64 132.183 55.544C132.183 55.3759 132.183 55.0879 132.183 54.7278V54.0558L132.087 53.9357Z" fill="white"/>
<path d="M134.912 55.6638C134.912 55.6638 134.839 55.6158 134.839 55.5438C134.839 55.3277 134.839 55.1117 134.864 55.0397C134.864 54.9917 134.864 54.9437 134.912 54.9437C134.936 54.9437 134.96 54.9917 134.96 55.0157C134.96 55.0637 134.96 55.1357 134.984 55.2077C135.081 55.4958 135.371 55.5918 135.612 55.5918C135.95 55.5918 136.167 55.3757 136.167 55.1117C136.167 54.9437 136.119 54.7757 135.781 54.5836L135.54 54.4396C135.081 54.1756 134.912 53.9115 134.912 53.5755C134.912 53.1194 135.371 52.8074 135.926 52.8074C136.191 52.8074 136.385 52.8554 136.481 52.8794C136.505 52.8794 136.529 52.8794 136.529 52.9274C136.529 52.9754 136.529 53.0954 136.529 53.3835C136.529 53.4555 136.529 53.5035 136.481 53.5035C136.457 53.5035 136.433 53.5035 136.433 53.4315C136.433 53.4075 136.433 53.2874 136.336 53.1914C136.264 53.1194 136.143 53.0234 135.902 53.0234C135.612 53.0234 135.371 53.1674 135.371 53.4315C135.371 53.5995 135.443 53.7435 135.781 53.9355L135.95 54.0315C136.481 54.3196 136.626 54.6076 136.626 54.9677C136.626 55.2557 136.529 55.4718 136.216 55.6878C136.022 55.8318 135.757 55.8558 135.564 55.8558C135.322 55.8558 135.081 55.8558 134.912 55.7598" fill="white"/>
<path d="M138.533 53.0716H137.954C137.712 53.0716 137.64 53.1196 137.567 53.1916C137.519 53.2396 137.519 53.2876 137.495 53.3116C137.495 53.3356 137.495 53.3596 137.447 53.3596C137.447 53.3596 137.422 53.3356 137.422 53.2876C137.422 53.2156 137.495 52.8555 137.519 52.8315C137.519 52.7835 137.519 52.7595 137.567 52.7595C137.591 52.7595 137.64 52.7835 137.736 52.8075C137.857 52.8075 138.002 52.8075 138.147 52.8075H139.764C139.885 52.8075 139.982 52.8075 140.03 52.8075C140.102 52.8075 140.126 52.8075 140.126 52.8075C140.151 52.8075 140.151 52.8075 140.151 52.8795C140.151 52.9516 140.151 53.2396 140.151 53.3356C140.151 53.3836 140.151 53.4076 140.126 53.4076C140.102 53.4076 140.078 53.4076 140.078 53.3356V53.2876C140.078 53.2876 139.957 53.0716 139.595 53.0716H139.088V54.6078C139.088 54.9678 139.088 55.2559 139.112 55.4239C139.112 55.5199 139.137 55.5919 139.257 55.6159C139.306 55.6159 139.402 55.6159 139.45 55.6159C139.499 55.6159 139.523 55.6159 139.523 55.6639C139.523 55.6879 139.499 55.7119 139.45 55.7119C139.185 55.7119 138.919 55.7119 138.799 55.7119C138.702 55.7119 138.436 55.7119 138.292 55.7119C138.243 55.7119 138.219 55.7119 138.219 55.6639C138.219 55.6639 138.219 55.6159 138.292 55.6159C138.364 55.6159 138.412 55.6159 138.436 55.6159C138.509 55.6159 138.533 55.5199 138.557 55.4239C138.557 55.2559 138.557 54.9678 138.557 54.6078V53.0716H138.533Z" fill="white"/>
<path d="M142.058 54.5358L141.696 53.5756V53.5516C141.696 53.5516 141.696 53.5516 141.696 53.5756L141.309 54.5358V54.5598H142.082L142.058 54.5358ZM141.213 54.7518C141.213 54.7518 141.189 54.7518 141.164 54.7758L140.947 55.2799C140.947 55.2799 140.899 55.4719 140.899 55.5199C140.899 55.5919 140.923 55.6399 141.068 55.6399H141.14C141.14 55.6399 141.189 55.6399 141.189 55.6879C141.189 55.7119 141.189 55.7359 141.116 55.7359C140.995 55.7359 140.802 55.7359 140.682 55.7359C140.633 55.7359 140.44 55.7359 140.223 55.7359C140.175 55.7359 140.15 55.7359 140.15 55.6879C140.15 55.6639 140.15 55.6399 140.199 55.6399C140.247 55.6399 140.271 55.6399 140.319 55.6399C140.488 55.6159 140.561 55.4959 140.657 55.3039L141.696 52.9035C141.696 52.9035 141.768 52.7595 141.816 52.7595C141.865 52.7595 141.889 52.7835 141.937 52.8795C142.034 53.0956 142.685 54.6558 142.951 55.2319C143.096 55.5679 143.217 55.6399 143.289 55.6399C143.337 55.6399 143.386 55.6399 143.434 55.6399C143.458 55.6399 143.482 55.6399 143.482 55.6879C143.482 55.7119 143.482 55.7359 143.313 55.7359C143.144 55.7359 142.879 55.7359 142.541 55.7359C142.468 55.7359 142.42 55.7359 142.42 55.7119C142.42 55.6879 142.42 55.6639 142.468 55.6639C142.468 55.6639 142.516 55.6159 142.492 55.5679L142.178 54.7998C142.178 54.7998 142.178 54.7758 142.13 54.7758H141.189L141.213 54.7518Z" fill="white"/>
<path d="M144.883 54.3438C144.883 54.7518 144.883 55.0399 144.883 55.1119C144.883 55.2079 144.883 55.3519 144.931 55.3759C144.979 55.4479 145.124 55.52 145.438 55.52C145.8 55.52 146.066 55.448 146.307 55.2559C146.573 55.0399 146.645 54.7038 146.645 54.3198C146.645 53.8397 146.452 53.5277 146.283 53.3597C145.921 53.0476 145.486 52.9996 145.172 52.9996C145.1 52.9996 144.955 52.9996 144.931 53.0236C144.907 53.0236 144.883 53.0476 144.883 53.0956C144.883 53.2156 144.883 53.5277 144.883 53.8397V54.3198V54.3438ZM144.352 53.9117C144.352 53.3356 144.352 53.2156 144.352 53.0956C144.352 52.9756 144.303 52.9276 144.183 52.8796C144.158 52.8796 144.086 52.8796 144.038 52.8796C143.989 52.8796 143.965 52.8796 143.965 52.8316C143.965 52.7836 143.989 52.7836 144.062 52.7836C144.279 52.7836 144.521 52.7836 144.641 52.7836C144.762 52.7836 145.052 52.7836 145.293 52.7836C145.8 52.7836 146.452 52.7836 146.887 53.2156C147.08 53.4077 147.249 53.7197 147.249 54.1758C147.249 54.6558 147.056 55.0159 146.814 55.2319C146.645 55.4239 146.211 55.688 145.486 55.688C145.341 55.688 145.172 55.688 145.003 55.688C144.834 55.688 144.714 55.664 144.593 55.664C144.545 55.664 144.448 55.664 144.376 55.664C144.279 55.664 144.183 55.664 144.11 55.664C144.062 55.664 144.038 55.664 144.038 55.616C144.038 55.616 144.038 55.568 144.11 55.568C144.158 55.568 144.207 55.568 144.255 55.568C144.327 55.568 144.352 55.472 144.376 55.3759C144.376 55.2079 144.376 54.9199 144.376 54.5598V53.8877L144.352 53.9117Z" fill="white"/>
<path d="M150.797 54.3437C150.797 53.5036 150.29 52.9756 149.638 52.9756C149.204 52.9756 148.673 53.2156 148.673 54.1517C148.673 54.9438 149.131 55.5439 149.88 55.5439C150.17 55.5439 150.797 55.4239 150.797 54.3197M148.093 54.2477C148.093 53.5996 148.552 52.7595 149.759 52.7595C150.749 52.7595 151.377 53.3116 151.377 54.1757C151.377 55.0398 150.749 55.7359 149.711 55.7359C148.552 55.7359 148.093 54.9198 148.093 54.2477" fill="white"/>
<path d="M154.105 55.6879C154.105 55.6879 154.033 55.6639 154.033 55.6159C154.033 55.5679 154.081 55.5439 154.129 55.4959C154.757 54.9438 155.65 54.2477 155.65 53.3116C155.65 52.5915 155.264 52.4475 155.023 52.4475C154.829 52.4475 154.685 52.4955 154.54 52.6155C154.443 52.7115 154.347 52.9275 154.347 53.0476C154.347 53.0956 154.347 53.1436 154.298 53.1436C154.298 53.1436 154.274 53.1196 154.25 53.0476C154.25 52.9996 154.25 52.6395 154.25 52.4955C154.25 52.4475 154.25 52.4475 154.298 52.3995C154.467 52.3035 154.709 52.2314 155.119 52.2314C155.916 52.2314 156.254 52.6635 156.254 53.1916C156.254 54.0557 155.288 54.8238 154.709 55.2799V55.3039H155.023C155.023 55.3039 155.626 55.3039 155.795 55.2799C156.109 55.2559 156.254 55.0879 156.302 54.8718C156.302 54.8238 156.326 54.7998 156.35 54.7998C156.375 54.7998 156.375 54.8478 156.375 54.8718C156.375 54.9438 156.278 55.3519 156.254 55.5199C156.23 55.6399 156.157 55.6639 155.868 55.6639H154.105V55.6879Z" fill="white"/>
<path d="M158.331 52.4717C157.993 52.4717 157.751 52.9278 157.751 53.9599C157.751 54.728 157.944 55.5921 158.451 55.5921C158.813 55.5921 159.031 54.968 159.031 54.1039C159.031 53.3358 158.813 52.4717 158.331 52.4717ZM158.331 55.7842C157.437 55.7842 157.196 54.752 157.196 54.1279C157.196 53.0958 157.558 52.2797 158.403 52.2797C159.296 52.2797 159.538 53.2158 159.538 53.9359C159.538 55.0401 159.103 55.7842 158.331 55.7842Z" fill="white"/>
<path d="M160.431 55.6879C160.431 55.6879 160.358 55.6639 160.358 55.6159C160.358 55.5679 160.407 55.5439 160.455 55.4959C161.083 54.9438 161.976 54.2477 161.976 53.3116C161.976 52.5915 161.59 52.4475 161.348 52.4475C161.155 52.4475 161.01 52.4955 160.865 52.6155C160.769 52.7115 160.672 52.9275 160.672 53.0476C160.672 53.0956 160.672 53.1436 160.624 53.1436C160.624 53.1436 160.6 53.1196 160.576 53.0476C160.576 52.9996 160.576 52.6395 160.576 52.4955C160.576 52.4475 160.576 52.4475 160.624 52.3995C160.793 52.3035 161.034 52.2314 161.445 52.2314C162.242 52.2314 162.58 52.6635 162.58 53.1916C162.58 54.0557 161.614 54.8238 161.034 55.2799V55.3039H161.348C161.348 55.3039 161.952 55.3039 162.121 55.2799C162.435 55.2559 162.58 55.0879 162.628 54.8718C162.628 54.8238 162.628 54.7998 162.676 54.7998C162.7 54.7998 162.7 54.8478 162.7 54.8718C162.7 54.9438 162.604 55.3519 162.58 55.5199C162.555 55.6399 162.483 55.6639 162.193 55.6639H160.431V55.6879Z" fill="white"/>
<path d="M163.569 55.6879C163.569 55.6879 163.497 55.6639 163.497 55.6159C163.497 55.5679 163.545 55.5439 163.594 55.4959C164.221 54.9438 165.115 54.2477 165.115 53.3116C165.115 52.5915 164.728 52.4475 164.487 52.4475C164.294 52.4475 164.149 52.4955 164.004 52.6155C163.908 52.7115 163.811 52.9275 163.811 53.0476C163.811 53.0956 163.811 53.1436 163.763 53.1436C163.763 53.1436 163.738 53.1196 163.714 53.0476C163.714 52.9996 163.69 52.6395 163.69 52.4955C163.69 52.4475 163.69 52.4475 163.738 52.3995C163.907 52.3035 164.149 52.2314 164.559 52.2314C165.356 52.2314 165.694 52.6635 165.694 53.1916C165.694 54.0557 164.728 54.8238 164.149 55.2799V55.3039H164.463C164.463 55.3039 165.066 55.3039 165.235 55.2799C165.549 55.2559 165.694 55.0879 165.742 54.8718C165.742 54.8238 165.767 54.7998 165.791 54.7998C165.815 54.7998 165.815 54.8478 165.815 54.8718C165.815 54.9438 165.718 55.3519 165.694 55.5199C165.67 55.6399 165.598 55.6639 165.308 55.6639H163.545L163.569 55.6879Z" fill="white"/>
<path d="M168.108 54.2958C168.108 54.2958 168.253 54.2958 168.253 54.3678C168.253 54.4398 168.181 54.4398 168.06 54.4638C167.891 54.4878 167.046 54.6318 166.901 54.6798C166.805 54.6798 166.732 54.7518 166.708 54.7518C166.684 54.7518 166.66 54.7278 166.684 54.6798L166.756 54.3678C166.756 54.3678 166.78 54.3198 166.853 54.3198H168.132L168.108 54.2958Z" fill="white"/>
<path d="M169.098 55.6879C169.098 55.6879 169.026 55.6639 169.026 55.6159C169.026 55.5679 169.074 55.5439 169.122 55.4959C169.75 54.9438 170.643 54.2477 170.643 53.3116C170.643 52.5915 170.257 52.4475 170.016 52.4475C169.823 52.4475 169.678 52.4955 169.533 52.6155C169.436 52.7115 169.34 52.9275 169.34 53.0476C169.34 53.0956 169.34 53.1436 169.267 53.1436C169.267 53.1436 169.243 53.1196 169.219 53.0476C169.219 52.9996 169.195 52.6395 169.195 52.4955C169.195 52.4475 169.195 52.4475 169.243 52.3995C169.412 52.3035 169.654 52.2314 170.064 52.2314C170.861 52.2314 171.199 52.6635 171.199 53.1916C171.199 54.0557 170.233 54.8238 169.654 55.2799V55.3039H169.967C169.967 55.3039 170.571 55.3039 170.74 55.2799C171.054 55.2559 171.199 55.0879 171.247 54.8718C171.247 54.8238 171.271 54.7998 171.295 54.7998C171.319 54.7998 171.319 54.8478 171.319 54.8718C171.319 54.9438 171.223 55.3519 171.199 55.5199C171.175 55.6399 171.102 55.6639 170.812 55.6639H169.05L169.098 55.6879Z" fill="white"/>
<path d="M173.299 52.4717C172.961 52.4717 172.72 52.9278 172.72 53.9599C172.72 54.728 172.913 55.5921 173.42 55.5921C173.782 55.5921 173.999 54.968 173.999 54.1039C173.999 53.3358 173.782 52.4717 173.299 52.4717ZM173.323 55.7842C172.43 55.7842 172.188 54.752 172.188 54.1279C172.188 53.0958 172.551 52.2797 173.396 52.2797C174.289 52.2797 174.53 53.2158 174.53 53.9359C174.53 55.0401 174.096 55.7842 173.323 55.7842Z" fill="white"/>
<path d="M175.4 55.6879C175.4 55.6879 175.327 55.6639 175.327 55.6159C175.327 55.5679 175.375 55.5439 175.424 55.4959C176.051 54.9438 176.945 54.2477 176.945 53.3116C176.945 52.5915 176.558 52.4475 176.317 52.4475C176.124 52.4475 175.979 52.4955 175.834 52.6155C175.738 52.7115 175.641 52.9275 175.641 53.0476C175.641 53.0956 175.641 53.1436 175.593 53.1436C175.593 53.1436 175.569 53.1196 175.544 53.0476C175.544 52.9996 175.52 52.6395 175.52 52.4955C175.52 52.4475 175.52 52.4475 175.569 52.3995C175.738 52.3035 175.979 52.2314 176.389 52.2314C177.186 52.2314 177.524 52.6635 177.524 53.1916C177.524 54.0557 176.558 54.8238 175.979 55.2799V55.3039H176.293C176.293 55.3039 176.896 55.3039 177.065 55.2799C177.379 55.2559 177.524 55.0879 177.572 54.8718C177.572 54.8238 177.597 54.7998 177.621 54.7998C177.645 54.7998 177.645 54.8478 177.645 54.8718C177.645 54.9438 177.548 55.3519 177.524 55.5199C177.5 55.6399 177.428 55.6639 177.138 55.6639H175.375L175.4 55.6879Z" fill="white"/>
<path d="M180.808 52.3275C180.808 52.3275 180.904 52.3275 180.904 52.3755C180.904 52.3995 180.904 52.4475 180.88 52.4475C180.518 52.9756 179.818 54.7518 179.745 55.3279C179.745 55.3999 179.745 55.4239 179.745 55.4959C179.745 55.5919 179.383 55.7599 179.166 55.7599C179.118 55.7599 179.093 55.7599 179.093 55.7119C179.093 55.6639 179.093 55.5919 179.118 55.5199C179.238 55.0879 179.818 53.7677 180.445 52.7355H179.287C179.166 52.7355 178.973 52.7355 178.852 52.8075C178.78 52.8555 178.707 52.9996 178.707 53.0716C178.707 53.0956 178.707 53.1196 178.659 53.1196C178.635 53.1196 178.635 53.1196 178.635 53.0476C178.635 52.8795 178.707 52.3515 178.707 52.3035C178.707 52.2555 178.707 52.2314 178.755 52.2314C178.78 52.2314 178.876 52.2795 179.359 52.2795H180.808V52.3275Z" fill="white"/>
<path d="M72.3081 30.7245C72.3081 28.6842 73.8774 27.3881 75.7364 27.3881C76.6539 27.3881 77.7403 27.7241 78.4163 28.8523L77.354 29.5724C76.9677 29.0203 76.4124 28.7563 75.7364 28.7563C74.65 28.7563 73.805 29.5004 73.805 30.7245C73.805 31.9487 74.6258 32.7408 75.7364 32.7408C76.4124 32.7408 77.0643 32.4528 77.2816 31.6127H75.833V30.4125H78.706C79.044 32.7168 77.523 34.085 75.7123 34.085C73.9015 34.085 72.3322 32.7648 72.3322 30.7245" fill="white"/>
<path d="M82.8107 31.1325C82.7142 30.5804 82.2072 30.3164 81.7485 30.3164C81.2897 30.3164 80.7827 30.5564 80.6379 31.1325H82.8349H82.8107ZM79.2859 31.6126C79.2859 30.0043 80.493 29.1162 81.7243 29.1162C82.9556 29.1162 84.38 29.9563 84.0662 32.1406H80.6379C80.831 32.6447 81.3139 32.9088 81.9416 32.9088C82.3762 32.9088 82.7383 32.8127 83.1005 32.5487L83.7523 33.2208C83.3419 33.7249 82.6659 34.0849 81.7967 34.0849C80.4689 34.0849 79.2617 33.1728 79.2617 31.6126" fill="white"/>
<path d="M84.7661 29.2122H86.1906V29.8123C86.4561 29.4043 86.939 29.1162 87.615 29.1162C88.5807 29.1162 89.4016 29.7163 89.4016 31.1805V33.9889H87.9771V31.4205C87.9771 30.8205 87.6633 30.3884 87.0838 30.3884C86.5044 30.3884 86.1906 30.8205 86.1906 31.4205V33.9889H84.7661V29.2122V29.2122Z" fill="white"/>
<path d="M90.6088 32.5247V30.3404H89.9087V29.2122H90.6088V27.988H92.0333V29.2122H93.0473V30.3404H92.0333V32.2847C92.0333 32.5247 92.1781 32.7887 92.6127 32.7887C92.7334 32.7887 92.8783 32.7887 93.0714 32.7167V33.7969C92.8783 33.9889 92.4678 34.0369 92.154 34.0369C91.2607 34.0369 90.633 33.6048 90.633 32.5247" fill="white"/>
<path d="M96.9829 31.1325C96.8863 30.5804 96.4035 30.3164 95.9206 30.3164C95.4377 30.3164 94.9549 30.5564 94.81 31.1325H97.007H96.9829ZM93.458 31.6126C93.458 30.0043 94.6652 29.1162 95.8965 29.1162C97.1278 29.1162 98.5522 29.9563 98.2383 32.1406H94.8342C95.0273 32.6447 95.5102 32.9088 96.1379 32.9088C96.5725 32.9088 96.9346 32.8127 97.2968 32.5487L97.9486 33.2208C97.5623 33.7249 96.8622 34.0849 95.993 34.0849C94.6652 34.0849 93.458 33.1728 93.458 31.6126" fill="white"/>
<path d="M103.139 32.8126C103.767 32.8126 104.322 32.3806 104.322 31.5885C104.322 30.7964 103.767 30.3883 103.139 30.3883C102.511 30.3883 101.98 30.8204 101.98 31.5885C101.98 32.3566 102.535 32.8126 103.139 32.8126ZM104.298 33.9888V33.4607H104.274C104.201 33.6288 103.694 34.0848 102.849 34.0848C101.763 34.0848 100.556 33.2687 100.556 31.6125C100.556 29.9562 101.763 29.1401 102.849 29.1401C103.694 29.1401 104.201 29.5962 104.274 29.7642H104.298V27.4839H105.722V33.9888H104.298Z" fill="white"/>
<path d="M109.899 31.1325C109.803 30.5804 109.296 30.3164 108.837 30.3164C108.378 30.3164 107.871 30.5564 107.727 31.1325H109.899ZM106.375 31.6126C106.375 30.0043 107.582 29.1162 108.813 29.1162C110.044 29.1162 111.469 29.9563 111.155 32.1406H107.751C107.944 32.6447 108.427 32.9088 109.054 32.9088C109.489 32.9088 109.851 32.8127 110.213 32.5487L110.865 33.2208C110.479 33.7249 109.779 34.0849 108.91 34.0849C107.582 34.0849 106.375 33.1728 106.375 31.6126" fill="white"/>
<path d="M114.197 32.5247V30.3404H113.497V29.2122H114.197V27.988H115.621V29.2122H116.635V30.3404H115.621V32.2847C115.621 32.5247 115.766 32.7887 116.201 32.7887C116.321 32.7887 116.466 32.7887 116.659 32.7167V33.7969C116.466 33.9889 116.056 34.0369 115.742 34.0369C114.849 34.0369 114.221 33.6048 114.221 32.5247" fill="white"/>
<path d="M117.311 29.2122H118.735V30.5084C118.904 29.7403 119.363 29.1162 120.232 29.1162C120.353 29.1162 120.45 29.1162 120.57 29.1642V30.5084C120.57 30.5084 120.353 30.4844 120.232 30.4844C119.267 30.4844 118.735 31.1085 118.735 32.0206V33.9889H117.311V29.2122V29.2122Z" fill="white"/>
<path d="M123.419 32.8127C124.047 32.8127 124.602 32.3807 124.602 31.5886C124.602 30.7965 124.047 30.3884 123.419 30.3884C122.792 30.3884 122.236 30.8205 122.236 31.5886C122.236 32.3567 122.792 32.8127 123.419 32.8127ZM120.836 31.5886C120.836 29.9323 122.043 29.1162 123.13 29.1162C123.975 29.1162 124.482 29.5723 124.554 29.7403H124.578V29.1882H126.003V33.9649H124.578V33.4128H124.554C124.482 33.5808 123.975 34.0369 123.13 34.0369C122.043 34.0369 120.836 33.2208 120.836 31.5646" fill="white"/>
<path d="M129.455 32.8125C130.058 32.8125 130.638 32.3805 130.638 31.6124C130.638 30.8442 130.083 30.4122 129.455 30.4122C128.827 30.4122 128.272 30.8442 128.272 31.6124C128.272 32.3805 128.827 32.8125 129.455 32.8125ZM128.296 27.4838V29.7641H128.32C128.393 29.5961 128.9 29.14 129.745 29.14C130.831 29.14 132.038 29.9561 132.038 31.6124C132.038 33.2686 130.831 34.0847 129.745 34.0847C128.9 34.0847 128.393 33.6286 128.32 33.4606H128.296V34.0127H126.872V27.5078H128.296V27.4838Z" fill="white"/>
<path d="M135.032 32.8127C135.66 32.8127 136.215 32.3807 136.215 31.5886C136.215 30.7965 135.66 30.3884 135.032 30.3884C134.404 30.3884 133.849 30.8205 133.849 31.5886C133.849 32.3567 134.404 32.8127 135.032 32.8127ZM132.449 31.5886C132.449 29.9323 133.656 29.1162 134.742 29.1162C135.587 29.1162 136.094 29.5723 136.167 29.7403H136.191V29.1882H137.615V33.9649H136.191V33.4128H136.167C136.094 33.5808 135.587 34.0369 134.742 34.0369C133.656 34.0369 132.449 33.2208 132.449 31.5646" fill="white"/>
<path d="M138.509 27.46H139.933V28.7081H138.509V27.46ZM137.229 34.421H137.519C138.171 34.421 138.509 34.2529 138.509 33.4128V29.1882H139.933V33.5568C139.933 35.069 139.233 35.7171 137.567 35.7171H137.205V34.397L137.229 34.421Z" fill="white"/>
<path d="M143.12 32.7887C143.748 32.7887 144.255 32.3327 144.255 31.5886C144.255 30.8445 143.748 30.3884 143.12 30.3884C142.492 30.3884 141.985 30.8445 141.985 31.5886C141.985 32.3327 142.492 32.7887 143.12 32.7887ZM140.585 31.5886C140.585 29.9563 141.889 29.1162 143.12 29.1162C144.351 29.1162 145.655 29.9803 145.655 31.5886C145.655 33.1968 144.375 34.0609 143.12 34.0609C141.865 34.0609 140.585 33.1968 140.585 31.5886Z" fill="white"/>
<path d="M149.832 33.9168L147.853 29.2122H149.301L150.532 32.3086L151.74 29.2122H153.212L151.184 33.9888L150.46 35.7171H149.06L149.832 33.9168Z" fill="white"/>
<path d="M155.336 32.7167L156.471 32.4047C156.544 32.6447 156.713 32.9568 157.171 32.9568C157.437 32.9568 157.678 32.8367 157.678 32.5727C157.678 32.4047 157.582 32.2607 157.268 32.1646L156.616 31.9246C155.819 31.6366 155.481 31.1325 155.481 30.5324C155.481 29.6443 156.278 29.1162 157.22 29.1162C158.161 29.1162 158.789 29.6203 158.934 30.3884L157.823 30.6524C157.702 30.2924 157.461 30.1964 157.268 30.1964C157.002 30.1964 156.857 30.3644 156.857 30.5324C156.857 30.7004 156.954 30.8445 157.268 30.9405L157.871 31.1565C158.403 31.3245 159.079 31.6846 159.079 32.5487C159.079 33.5088 158.258 34.0609 157.195 34.0609C156.23 34.0609 155.505 33.6049 155.361 32.6927" fill="white"/>
<path d="M162.024 32.7887C162.652 32.7887 163.159 32.3327 163.159 31.5886C163.159 30.8445 162.652 30.3884 162.024 30.3884C161.396 30.3884 160.889 30.8445 160.889 31.5886C160.889 32.3327 161.396 32.7887 162.024 32.7887ZM159.489 31.5886C159.489 29.9563 160.768 29.1162 162.024 29.1162C163.279 29.1162 164.559 29.9803 164.559 31.5886C164.559 33.1968 163.279 34.0609 162.024 34.0609C160.768 34.0609 159.489 33.1968 159.489 31.5886Z" fill="white"/>
<path d="M166.635 27.46H165.211V33.9649H166.635V27.46Z" fill="white"/>
<path d="M172.14 33.9888H170.716V33.3888C170.45 33.7968 169.967 34.0849 169.291 34.0849C168.326 34.0849 167.505 33.4848 167.505 32.0206V29.2122H168.929V31.7805C168.929 32.3806 169.243 32.8127 169.823 32.8127C170.402 32.8127 170.716 32.3806 170.716 31.7805V29.2122H172.14V33.9888V33.9888Z" fill="white"/>
<path d="M172.792 31.5886C172.792 29.9803 174.072 29.1162 175.351 29.1162C176.196 29.1162 176.945 29.5003 177.427 30.2924L176.389 30.9645C176.148 30.6524 175.81 30.4124 175.351 30.4124C174.723 30.4124 174.216 30.8685 174.216 31.5886C174.216 32.3087 174.748 32.7887 175.351 32.7887C175.81 32.7887 176.148 32.5487 176.389 32.2367L177.427 32.9088C176.969 33.6769 176.22 34.0849 175.351 34.0849C174.072 34.0849 172.792 33.2208 172.792 31.5886Z" fill="white"/>
<path d="M178.055 29.2122H179.479V33.9889H178.055V29.2122ZM178.055 27.46H179.479V28.7081H178.055V27.46Z" fill="white"/>
<path d="M182.666 32.7887C183.294 32.7887 183.801 32.3327 183.801 31.5886C183.801 30.8445 183.294 30.3884 182.666 30.3884C182.039 30.3884 181.532 30.8445 181.532 31.5886C181.532 32.3327 182.039 32.7887 182.666 32.7887ZM180.131 31.5886C180.131 29.9563 181.411 29.1162 182.666 29.1162C183.922 29.1162 185.201 29.9803 185.201 31.5886C185.201 33.1968 183.898 34.0609 182.666 34.0609C181.435 34.0609 180.131 33.1968 180.131 31.5886Z" fill="white"/>
<path d="M185.854 29.2122H187.278V29.8123C187.544 29.4043 188.026 29.1162 188.702 29.1162C189.668 29.1162 190.489 29.7163 190.489 31.1805V33.9889H189.065V31.4205C189.065 30.8205 188.751 30.3884 188.171 30.3884C187.592 30.3884 187.278 30.8205 187.278 31.4205V33.9889H185.854V29.2122V29.2122Z" fill="white"/>
<path d="M194.666 31.1325C194.569 30.5804 194.086 30.3164 193.603 30.3164C193.12 30.3164 192.638 30.5564 192.493 31.1325H194.69H194.666ZM191.141 31.6126C191.141 30.0043 192.348 29.1162 193.579 29.1162C194.81 29.1162 196.235 29.9563 195.921 32.1406H192.517C192.71 32.6447 193.193 32.9088 193.821 32.9088C194.255 32.9088 194.617 32.8127 194.979 32.5487L195.631 33.2208C195.245 33.7249 194.545 34.0849 193.676 34.0849C192.348 34.0849 191.141 33.1728 191.141 31.6126" fill="white"/>
<path d="M196.187 32.7167L197.321 32.4047C197.394 32.6447 197.563 32.9568 198.021 32.9568C198.287 32.9568 198.528 32.8367 198.528 32.5727C198.528 32.4047 198.432 32.2607 198.118 32.1646L197.466 31.9246C196.669 31.6366 196.331 31.1325 196.331 30.5324C196.331 29.6443 197.128 29.1162 198.07 29.1162C199.011 29.1162 199.639 29.6203 199.784 30.3884L198.673 30.6524C198.553 30.2924 198.311 30.1964 198.118 30.1964C197.852 30.1964 197.708 30.3644 197.708 30.5324C197.708 30.7004 197.804 30.8445 198.118 30.9405L198.722 31.1565C199.229 31.3245 199.929 31.6846 199.929 32.5487C199.929 33.5088 199.108 34.0609 198.046 34.0609C197.08 34.0609 196.356 33.6049 196.211 32.6927" fill="white"/>
<path d="M71.0773 16.0583L69.1941 10.7535L67.3592 16.0583H71.0773V16.0583ZM71.3911 5.78479L77.5718 22.0591H73.1777L72.381 19.7548H66.0555L65.2588 22.0591H60.8647L67.0454 5.78479H71.4153H71.3911Z" fill="white"/>
<path d="M81.7723 18.7706C83.1967 18.7706 84.3797 17.7865 84.3797 16.0822C84.3797 14.378 83.1967 13.3939 81.7723 13.3939C80.3478 13.3939 79.1407 14.402 79.1407 16.0822C79.1407 17.7625 80.372 18.7706 81.7723 18.7706ZM78.2957 26.1157V22.9712C78.8751 23.3313 80.0823 23.5233 81.0238 23.5233C83.2691 23.5233 84.3073 22.4432 84.3073 21.291V20.9069H84.1624C84.0659 21.123 82.9794 22.2511 80.9514 22.2511C78.2474 22.2511 75.2295 20.2108 75.2295 16.0582C75.2295 11.9056 78.2474 9.86536 80.9514 9.86536C82.9794 9.86536 84.0659 11.0175 84.1624 11.2095H84.3073V10.0814H88.2909V20.9309C88.2909 25.7556 84.428 26.7638 81.7964 26.7638C80.5651 26.7638 79.1165 26.5957 78.3198 26.0677" fill="white"/>
<path d="M100.411 22.0591H96.4273V20.6669C95.7271 21.6271 94.6165 22.2992 93.0231 22.2992C90.6088 22.2992 88.5566 20.811 88.5566 17.1624V10.1534H92.5644V16.4903C92.5402 17.7385 93.1438 18.7947 94.4958 18.7947C95.8478 18.7947 96.4031 17.7145 96.4031 16.4903V10.1534H100.411V22.0591V22.0591Z" fill="white"/>
<path d="M106.688 18.7707C108.112 18.7707 109.32 17.7865 109.32 16.0823C109.32 14.378 108.112 13.3939 106.688 13.3939C105.264 13.3939 104.081 14.402 104.081 16.0823C104.081 17.7625 105.312 18.7707 106.688 18.7707ZM100.169 16.0823C100.169 11.9057 103.163 9.8894 105.843 9.8894C107.943 9.8894 109.078 11.0416 109.175 11.2336H109.247V10.1054H113.231V22.0111H109.247V20.883H109.175C109.078 21.099 107.943 22.2272 105.843 22.2272C103.163 22.2272 100.169 20.2109 100.169 16.0343" fill="white"/>
<path d="M112.845 18.8427L115.983 18.0026C116.152 18.4106 116.418 19.2267 117.48 19.2267C118.035 19.2267 118.494 18.9627 118.494 18.4586C118.494 18.1946 118.349 17.8825 117.722 17.6905L115.959 17.0424C113.979 16.3463 113.134 15.0501 113.134 13.5139C113.134 11.2336 115.235 9.8894 117.649 9.8894C120.063 9.8894 121.705 11.2096 122.091 13.2259L118.977 13.994C118.711 13.0819 118.156 12.9378 117.794 12.9378C117.166 12.9378 116.973 13.3459 116.973 13.6099C116.973 13.874 117.142 14.21 117.818 14.378L119.46 14.9781C120.619 15.3382 122.381 16.2503 122.381 18.4586C122.381 20.859 120.305 22.2752 117.504 22.2752C115.042 22.2752 113.159 21.171 112.796 18.8427" fill="white"/>
<path d="M121.561 16.0823C121.561 12.0498 124.772 9.91345 128.007 9.91345C130.131 9.91345 131.966 10.8736 133.198 12.8419L130.324 14.7141C129.793 14.042 129.045 13.466 128.007 13.466C126.631 13.466 125.496 14.5221 125.496 16.0823C125.496 17.6426 126.631 18.7467 128.007 18.7467C129.045 18.7467 129.793 18.1466 130.324 17.4745L133.198 19.3468C131.966 21.2671 130.131 22.2752 128.007 22.2752C124.772 22.2752 121.561 20.1389 121.561 16.0583" fill="white"/>
<path d="M138.485 18.7707C139.909 18.7707 141.117 17.7865 141.117 16.0823C141.117 14.378 139.909 13.3939 138.485 13.3939C137.06 13.3939 135.877 14.402 135.877 16.0823C135.877 17.7625 137.109 18.7707 138.485 18.7707ZM131.966 16.0823C131.966 11.9057 134.96 9.8894 137.64 9.8894C139.74 9.8894 140.875 11.0416 140.972 11.2336H141.044V10.1054H145.028V22.0111H141.044V20.883H140.972C140.875 21.099 139.74 22.2272 137.64 22.2272C134.96 22.2272 131.966 20.2109 131.966 16.0343" fill="white"/>
<path d="M149.301 5.78479H145.317V22.0591H149.301V5.78479Z" fill="white"/>
<path d="M153.598 10.1533H149.615V22.059H153.598V10.1533Z" fill="white"/>
<path d="M161.855 14.8341C161.59 13.7059 160.552 13.2019 159.538 13.2019C158.524 13.2019 157.509 13.7059 157.099 14.8341H161.879H161.855ZM153.309 16.1063C153.309 12.0737 156.351 9.8894 159.465 9.8894C162.58 9.8894 166.177 11.9777 165.356 17.6185H157.22C157.703 18.5786 158.741 19.0587 160.117 19.0587C161.083 19.0587 161.976 18.8667 162.845 18.2666L164.608 20.1149C163.642 21.339 161.952 22.2512 159.682 22.2512C156.326 22.2512 153.309 20.0189 153.309 16.0823" fill="white"/>
<path d="M165.211 10.1535H169.195V11.5457C169.895 10.5855 171.005 9.91345 172.599 9.91345C175.013 9.91345 177.065 11.4017 177.065 15.0502V22.0592H173.082V15.7223C173.082 14.4741 172.478 13.418 171.126 13.418C169.774 13.418 169.219 14.4981 169.219 15.7223V22.0592H165.235V10.1535H165.211Z" fill="white"/>
<path d="M178.273 18.0745V13.2739H176.438V10.1534H178.273V7.10498H182.256V10.1534H184.791V13.2739H182.256V17.4985C182.256 18.0505 182.57 18.7466 183.705 18.7466C183.995 18.7466 184.429 18.6986 184.84 18.5546V21.555C184.381 22.0591 183.295 22.2271 182.401 22.2271C180.011 22.2271 178.273 21.075 178.273 18.0986" fill="white"/>
<path d="M192.493 14.8341C192.203 13.7059 191.189 13.2019 190.175 13.2019C189.161 13.2019 188.147 13.7059 187.737 14.8341H192.517H192.493ZM183.946 16.1063C183.946 12.0737 186.988 9.8894 190.103 9.8894C193.217 9.8894 196.815 11.9777 195.994 17.6185H187.857C188.34 18.5786 189.378 19.0587 190.755 19.0587C191.72 19.0587 192.59 18.8667 193.483 18.2666L195.245 20.1149C194.28 21.339 192.59 22.2512 190.32 22.2512C186.94 22.2512 183.946 20.0189 183.946 16.0823" fill="white"/>
<path d="M194.786 18.8427L197.925 18.0026C198.094 18.4106 198.359 19.2267 199.422 19.2267C199.977 19.2267 200.436 18.9627 200.436 18.4586C200.436 18.1946 200.291 17.8825 199.663 17.6905L197.901 17.0424C195.921 16.3463 195.052 15.0501 195.052 13.5139C195.052 11.2336 197.152 9.8894 199.566 9.8894C201.981 9.8894 203.622 11.2096 204.033 13.2259L200.918 13.994C200.677 13.0819 200.098 12.9378 199.735 12.9378C199.108 12.9378 198.915 13.3459 198.915 13.6099C198.915 13.874 199.084 14.21 199.76 14.378L201.401 14.9781C202.56 15.3382 204.323 16.2503 204.323 18.4586C204.323 20.859 202.246 22.2752 199.446 22.2752C196.983 22.2752 195.1 21.171 194.738 18.8427" fill="white"/>
<path d="M149.47 7.39321C149.47 6.04902 150.508 5.16089 151.715 5.16089C152.922 5.16089 153.96 6.02501 153.96 7.39321C153.96 8.7614 152.898 9.62553 151.715 9.62553C150.532 9.62553 149.47 8.7614 149.47 7.39321" fill="white"/>
<path d="M36.7217 13.8261L37.7115 16.7065L45.7995 8.68934L50.6764 13.538V9.64947L45.7995 4.80078L36.7217 13.8261Z" fill="white"/>
<path d="M50.6764 39.4375V33.5087L47.6826 36.4851L50.6764 39.4375Z" fill="white"/>
<path d="M0 39.4376V33.5088L2.99374 36.4852L0 39.4376Z" fill="white"/>
<path d="M29.9859 30.1963L29.4547 28.5641L27.813 30.1963H29.9859Z" fill="white"/>
<path d="M38.6289 19.4428L38.8703 20.1389L39.6188 22.3232L45.896 16.0823L50.6763 20.835V16.9705L45.896 12.2178L38.6289 19.4428Z" fill="white"/>
<path d="M19.2423 38.7177H18.0593L17.5522 40.3979L16.997 42.2222L16.152 45.0066H12.9168L7.89502 49.9993L11.0095 49.9753H11.8062L23.1534 38.7177H19.2423Z" fill="white"/>
<path d="M41.4051 6.00092L39.4495 4.05664L34.9106 8.54528L35.9005 11.4497L41.4051 6.00092Z" fill="white"/>
<path d="M26.8714 20.451L25.9298 17.4985L24.264 19.1308L22.5498 24.7236L26.8714 20.451Z" fill="white"/>
<path d="M46.4996 41.958L50.6764 46.1346V42.246L44.4233 36.0051L46.4996 41.958Z" fill="white"/>
<path d="M40.4395 24.6035L41.4293 27.484L45.7992 23.1633L50.145 27.484L44.3023 33.2688L46.2579 35.2131L50.6761 30.8204V24.1235L45.7992 19.2748L40.4395 24.6035Z" fill="white"/>
<path d="M26.5333 38.7175L15.186 49.9991L17.5762 49.9751H19.0972L30.4203 38.7175H26.5333Z" fill="white"/>
<path d="M46.3305 44.8144H46.2822L42.3952 44.7904L42.4193 44.8144H40.2464L35.0557 49.9751H36.5284H38.9668L43.2885 45.6785L47.6101 49.9751H50.6762V49.159L46.3305 44.8144Z" fill="white"/>
<path d="M33.6554 41.958L32.7138 39.0536L21.7046 49.9992L25.0846 49.9751H25.6399L33.1967 42.4621L33.6554 41.958Z" fill="white"/>
<path d="M34.5485 44.8143L34.2588 43.9022L28.1265 49.9991L30.6615 49.9751H32.0618L37.2525 44.8143H34.5485Z" fill="white"/>
<path d="M22.5977 0.240112L17.3345 5.23283H19.6281H21.4871L26.5088 0.240112H22.5977Z" fill="white"/>
<path d="M30.9033 0.23999H29.1168L24.1191 5.2327H27.2095H28.0062L33.0279 0.23999H30.9033Z" fill="white"/>
<path d="M36.9148 0.240112H35.5628L30.541 5.23283H33.7762L33.9452 5.71289L39.4498 0.240112H36.9148Z" fill="white"/>
<path d="M50.6764 6.69706V5.13684L49.9038 5.92895L50.6764 6.69706Z" fill="white"/>
<path d="M43.0713 4.17655L45.8236 1.46417L48.6484 4.27257L50.6039 2.32829L48.5035 0.23999H43.1437L41.1157 2.23227L43.0713 4.17655Z" fill="white"/>
<path d="M47.5375 27.3639L45.5819 25.4436L41.9604 29.0201L42.9745 31.9005L47.5375 27.3639Z" fill="white"/>
<path d="M14.0514 13.8261L13.0615 16.7065L4.97358 8.68934L0.0966797 13.538V9.64947L4.97358 4.80078L14.0514 13.8261Z" fill="white"/>
<path d="M19.0008 0.23999H15.162L11.3233 4.05654L9.36768 6.00081L14.8482 11.4496L15.838 8.54518L13.303 6.02482L19.0008 0.23999Z" fill="white"/>
<path d="M12.1441 19.4428L11.9026 20.1389L11.1301 22.3232L4.85286 16.0823L0.0966797 20.835V16.9705L4.85286 12.2178L12.1441 19.4428Z" fill="white"/>
<path d="M4.27343 41.958L0.0966797 46.1346V42.246L6.34974 36.0051L4.27343 41.958Z" fill="white"/>
<path d="M10.3333 24.6034L9.31933 27.4838L4.97358 23.1632L0.627827 27.4838L6.47045 33.2687L4.51486 35.2129L0.0966797 30.8203V24.1234L4.97358 19.2747L10.3333 24.6034Z" fill="white"/>
<path d="M5.4323 44.8144H5.45644L9.34348 44.7904L4.15272 49.9751H1.0624H0.0966797L5.4323 44.8144Z" fill="white"/>
<path d="M0.0966797 6.69706V5.13684L0.869258 5.92895L0.0966797 6.69706Z" fill="white"/>
<path d="M7.67717 4.17667L4.949 1.46429L2.10012 4.27269L0.144531 2.32841L2.26912 0.240112H7.62888L9.63276 2.2324L7.67717 4.17667Z" fill="white"/>
<path d="M3.23535 27.3639L5.19094 25.4436L8.78826 29.0201L7.79839 31.9005L3.23535 27.3639Z" fill="white"/>
<path d="M28.0545 24.1474L27.6441 22.8512L23.1293 27.3158L21.9463 28.516L21.1254 29.3801L20.8599 30.1962H24.0467H24.1433L28.5856 25.7796L28.0545 24.1474Z" fill="white"/>
<path d="M46.2822 44.8144H46.3305L46.3064 44.7904L46.2822 44.8144Z" fill="white"/>
<path d="M41.8159 49.9991H45.0752L43.3611 48.1989L41.8159 49.9991Z" fill="white"/>
<path d="M88.7983 46.3027C88.7983 46.1106 88.8225 45.9666 88.9915 45.6786C91.5507 41.0939 92.8061 38.1175 92.8302 37.1094C92.8302 36.9893 92.8785 36.9173 93.1682 36.8693C93.8442 36.7493 96.5483 36.7013 97.1518 36.7013C97.5864 36.7013 97.9003 37.3014 97.9003 37.8295C97.9003 38.1175 97.8037 38.3815 97.5864 38.5016C97.2001 38.5016 96.4517 38.4535 96.1137 38.4535C95.5343 38.4535 95.0997 38.5015 94.9548 38.7176C94.6651 39.1016 93.2648 41.2619 93.2648 41.43C93.2648 41.574 93.3855 41.646 93.5062 41.646C93.796 41.646 94.4961 41.646 94.5927 41.646C94.8341 41.67 95.0514 42.1021 95.0514 42.4861C95.0514 42.7742 94.9065 43.0622 94.5444 43.1102C93.0717 43.2782 92.0818 43.5903 92.0818 43.5903C91.8887 43.7823 91.1161 45.1265 91.1161 45.4145C91.1161 45.5346 91.2368 45.5826 91.4782 45.5826C92.0335 45.5826 92.5888 45.4625 93.2407 45.4625C93.8442 45.4625 94.3754 45.9666 94.3754 46.7347C94.3754 46.9508 94.303 47.0948 94.134 47.0948C93.2407 47.0948 91.6231 47.3828 90.8022 47.7429C90.6815 47.7909 90.5849 47.7909 90.3194 47.7909C89.7882 47.7909 88.7983 46.6867 88.7983 46.3027" fill="white"/>
<path d="M95.0273 45.8946C95.0273 44.2864 98.4557 38.7416 98.9627 37.4214C99.0834 37.0854 99.3972 37.0374 99.6387 37.0374C100.049 37.0374 100.749 37.5654 100.749 38.0215C100.749 38.1415 100.701 38.2855 100.653 38.3575C99.2765 40.4218 97.2244 43.7103 96.3311 45.8226C96.3069 45.9186 96.2828 46.0146 96.2828 46.1106C96.2828 46.2307 96.3311 46.3267 96.4035 46.3267C96.4276 46.3267 96.4518 46.3267 96.5001 46.2787C96.6449 46.1587 97.3209 45.6306 97.9728 44.7905C98.3832 44.3344 99.7594 42.6302 100.025 42.2701C100.073 42.2221 100.097 42.1981 100.146 42.1981C100.266 42.1981 100.363 42.4621 100.363 42.4621C99.9767 43.0622 99.1317 44.2384 98.3591 45.3185C97.9004 45.9426 97.1278 46.9508 96.5966 47.3828C96.4759 47.5028 96.3069 47.5509 96.1862 47.5509C95.5826 47.5509 95.0515 46.5187 95.0515 45.8706" fill="white"/>
<path d="M102.922 45.8465C103.381 44.7424 103.743 43.7822 103.984 43.2061C104.008 43.0861 104.033 42.9901 104.033 42.9181C104.033 42.7981 103.984 42.7501 103.936 42.7501C103.357 42.7501 101.594 45.2944 101.594 46.2306C101.594 46.2786 101.691 46.3746 101.884 46.3746C102.101 46.3746 102.439 46.2546 102.922 45.8465M98.8659 49.8071C98.8659 49.159 99.3971 48.5109 100.073 48.5109C100.073 48.5109 100.097 48.5109 100.097 48.5349C100.025 48.7029 100.001 48.8949 100.001 49.063C100.001 49.591 100.242 50.0711 100.604 50.0711C100.822 50.0711 101.087 49.8791 101.353 49.351C101.763 48.4869 102.174 47.5988 102.536 46.7826C102.077 47.1667 101.667 47.3107 101.304 47.3107C100.773 47.3107 100.435 46.9987 100.435 46.6626C100.435 44.7183 102.681 40.5417 103.767 40.5417C104.274 40.5417 104.974 41.0218 104.974 41.5739C104.974 41.7179 104.926 41.8859 104.805 42.03C105.336 42.078 105.916 42.438 105.916 42.9661C105.916 43.1101 105.867 43.2781 105.747 43.4462C104.733 44.9824 103.839 46.7586 102.681 49.255C102.246 50.1911 101.425 51.1033 100.556 51.1033C99.3247 51.1033 98.8418 50.4792 98.8418 49.8551" fill="white"/>
<path d="M108.04 39.9657C108.04 39.4857 108.619 38.6696 109.175 38.6696C109.802 38.6696 110.285 39.2936 110.285 39.6537C110.285 40.0137 109.778 40.8539 109.392 40.8539C108.909 40.8539 108.04 40.3978 108.04 39.9657ZM105.625 45.8226C105.625 44.9345 106.639 42.9662 107.147 41.646C107.267 41.3099 107.581 41.2619 107.823 41.2619C108.257 41.2619 108.885 41.718 108.885 42.1981C108.885 42.3181 108.837 42.4621 108.788 42.5341C107.75 44.0703 106.833 45.8466 106.833 46.1106C106.833 46.2306 106.881 46.3266 106.953 46.3266C106.977 46.3266 107.002 46.3267 107.05 46.2786C107.195 46.1586 107.871 45.6305 108.523 44.7904C108.933 44.3344 110.309 42.6301 110.575 42.2941C110.623 42.2461 110.647 42.1981 110.696 42.1981C110.816 42.1981 110.913 42.4621 110.913 42.4621C110.527 43.0622 109.682 44.2383 108.909 45.3185C108.45 45.9426 107.678 46.9507 107.122 47.3828C107.002 47.5028 106.857 47.5268 106.736 47.5268C106.157 47.5268 105.625 46.4227 105.625 45.7986" fill="white"/>
<path d="M110.889 45.8465C111.348 44.7424 111.71 43.7822 111.951 43.2061C111.975 43.0861 112 42.9901 112 42.9181C112 42.7981 111.951 42.7501 111.903 42.7501C111.324 42.7501 109.561 45.2944 109.561 46.2306C109.561 46.2786 109.658 46.3746 109.851 46.3746C110.068 46.3746 110.406 46.2546 110.889 45.8465M106.833 49.8071C106.833 49.159 107.364 48.5109 108.04 48.5109C108.04 48.5109 108.064 48.5109 108.064 48.5349C107.992 48.7029 107.968 48.8949 107.968 49.063C107.968 49.591 108.233 50.0711 108.571 50.0711C108.789 50.0711 109.054 49.8791 109.32 49.351C109.73 48.4869 110.141 47.5988 110.503 46.7826C110.044 47.1667 109.634 47.3107 109.271 47.3107C108.74 47.3107 108.402 46.9987 108.402 46.6626C108.402 44.7183 110.648 40.5417 111.734 40.5417C112.241 40.5417 112.941 41.0218 112.941 41.5739C112.941 41.7179 112.893 41.8859 112.772 42.03C113.303 42.078 113.883 42.438 113.883 42.9661C113.883 43.1101 113.834 43.2781 113.738 43.4462C112.724 44.9824 111.831 46.7586 110.672 49.255C110.237 50.1911 109.416 51.1033 108.547 51.1033C107.316 51.1033 106.833 50.4792 106.833 49.8551" fill="white"/>
<path d="M114.631 46.5905C115.259 46.0624 116.466 44.0221 116.635 43.518C116.659 43.47 116.659 43.398 116.659 43.374C116.659 43.23 116.539 43.086 116.418 43.086C115.959 43.086 114.245 45.7503 114.245 46.4944C114.245 46.6145 114.293 46.6865 114.39 46.6865C114.462 46.6865 114.535 46.6625 114.607 46.6145M113.207 46.6625C113.207 44.7422 115.645 40.5896 116.732 40.5896C116.804 40.5896 116.877 40.5896 116.973 40.6376C117.287 40.7576 117.794 41.1417 117.794 41.5737C117.794 41.7178 117.722 41.8618 117.577 42.0058C118.108 42.0538 118.688 42.4379 118.688 42.9419C118.688 43.11 118.639 43.254 118.519 43.422C118.084 43.9981 117.432 45.0302 117.239 45.5583C117.118 45.8704 117.094 46.0624 117.094 46.2064C117.094 46.3744 117.166 46.4464 117.239 46.4464C117.336 46.4464 117.456 46.3744 117.577 46.2544C117.722 46.1344 118.253 45.4863 118.808 44.8382C119.219 44.3821 120.595 42.6779 120.86 42.3418C120.909 42.2938 120.933 42.2458 120.981 42.2458C121.102 42.2458 121.198 42.5099 121.198 42.5099C120.812 43.11 119.991 44.2861 119.195 45.3663C118.398 46.4704 117.529 47.6466 117.022 47.6466C116.587 47.6466 116.177 47.3106 116.128 46.3984C115.573 46.9265 114.897 47.7186 114.462 47.7186C113.931 47.7186 113.207 47.2866 113.207 46.7105" fill="white"/>
<path d="M118.615 46.6148C118.615 45.6067 120.836 40.71 121.922 40.71C122.284 40.71 122.888 41.118 122.888 41.5501C122.888 41.6941 122.816 41.8621 122.598 42.0302C122.236 42.3422 120.86 44.0944 120.86 44.3345C120.86 44.3585 120.86 44.3825 120.884 44.3825C121.174 44.3825 123.154 41.8621 123.733 41.6221C124.264 41.6701 124.844 42.0302 124.844 42.5342C124.844 42.7022 124.795 42.8463 124.675 43.0143C124.24 43.5904 123.588 44.6225 123.419 45.1506C123.298 45.4626 123.25 45.6547 123.25 45.7987C123.25 45.9667 123.323 46.0387 123.419 46.0387C123.733 46.0387 124.433 45.1746 124.747 44.7905C125.158 44.3345 126.534 42.6302 126.799 42.2702C126.848 42.2222 126.872 42.1742 126.92 42.1742C127.041 42.1742 127.137 42.4382 127.137 42.4382C126.751 43.0383 125.93 44.2145 125.133 45.2946C124.53 46.1107 123.468 47.2389 122.791 47.2389C122.381 47.2389 122.091 46.8548 122.091 45.7987C122.091 44.9106 122.357 44.5505 122.357 44.5505C122.164 44.5505 121.657 44.9586 121.295 45.4146C120.763 46.0387 120.329 46.9028 120.112 47.5269C120.039 47.719 119.918 47.815 119.774 47.815C119.46 47.815 118.615 47.2629 118.615 46.6388" fill="white"/>
<path d="M124.892 46.1826C124.892 45.3665 125.737 43.6142 126.63 41.958C125.761 41.6699 125.641 41.1899 125.641 40.7578C125.641 40.6138 125.737 40.5418 125.834 40.5418C126.075 40.5418 126.703 40.6378 127.331 40.6378C127.91 39.6056 128.393 38.6935 128.562 38.2374C128.683 37.9254 128.996 37.8534 129.238 37.8534C129.648 37.8534 130.348 38.3815 130.348 38.8615C130.348 38.9816 130.3 39.1256 130.252 39.1976C129.914 39.7257 129.528 40.2537 129.141 40.8058C129.455 41.0218 129.89 41.2619 129.89 41.5259C129.89 41.6699 129.793 41.7179 129.697 41.7419L128.393 41.886C127.475 43.2062 126.582 44.5984 126.075 45.8465C126.027 46.0146 126.003 46.1346 126.003 46.2306C126.003 46.3746 126.051 46.4466 126.148 46.4466C126.244 46.4466 126.365 46.3986 126.558 46.2786C126.775 46.1346 127.524 45.5825 128.127 44.8144C128.538 44.3583 129.914 42.6541 130.179 42.318C130.228 42.27 130.252 42.222 130.3 42.222C130.421 42.222 130.517 42.4861 130.517 42.4861C130.131 43.0861 129.286 44.2623 128.514 45.3425C128.055 45.9666 127.137 46.9747 126.606 47.4068C126.486 47.5028 126.389 47.5268 126.244 47.5268C125.665 47.5268 124.892 46.8307 124.892 46.1826" fill="white"/>
<path d="M132.304 42.4622C132.304 42.4622 132.207 42.4382 132.159 42.4382C131.169 42.6782 130.228 43.8064 129.769 45.0305C131.483 43.8784 132.014 42.9902 132.28 42.4622M128.224 45.9187C128.224 43.8064 130.228 40.6859 131.773 40.6859C132.256 40.6859 132.328 41.43 132.763 41.7181C133.052 41.9101 133.583 41.9581 133.583 42.6782C133.583 43.3503 130.759 45.2226 129.527 45.8466C129.503 46.0387 129.479 46.2307 129.479 46.4227C129.479 46.7348 129.624 46.9028 129.938 46.9028C130.904 46.9028 132.014 45.8707 132.98 44.7905C133.39 44.3344 134.766 42.6302 135.032 42.2941C135.08 42.2461 135.104 42.1981 135.153 42.1981C135.273 42.1981 135.37 42.4622 135.37 42.4622C134.984 43.0623 134.163 44.2384 133.366 45.3186C132.4 46.6388 131.048 47.7429 130.155 47.7429C129.624 47.7429 128.272 46.9508 128.272 45.8707" fill="white"/>
<path d="M136.818 46.5905C137.301 46.2065 138.291 44.6702 138.798 43.7581L139.112 43.11C139.112 43.11 139.136 43.014 139.136 42.99C139.136 42.822 139.015 42.702 138.895 42.702C138.436 42.702 136.432 45.7744 136.432 46.5185C136.432 46.6385 136.48 46.7105 136.577 46.7105C136.649 46.7105 136.722 46.6865 136.794 46.6385M135.394 46.6865C135.394 44.4782 137.712 41.4298 138.581 40.7337C138.75 40.6377 138.846 40.6137 138.943 40.6137C139.354 40.6137 139.764 40.9977 139.981 41.3338C140.609 40.0136 141.164 38.7414 141.695 37.4452C141.816 37.1332 142.13 37.0612 142.371 37.0612C142.806 37.0612 143.482 37.5892 143.482 38.0453C143.482 38.1653 143.434 38.3093 143.385 38.3813C141.864 40.3976 139.305 45.3183 139.305 46.2065C139.305 46.3745 139.378 46.4465 139.45 46.4465C139.547 46.4465 139.667 46.3745 139.788 46.2545C139.933 46.1345 140.464 45.4864 141.019 44.8383C141.43 44.3822 142.806 42.678 143.072 42.3419C143.12 42.2939 143.144 42.2459 143.192 42.2459C143.313 42.2459 143.41 42.5099 143.41 42.5099C143.023 43.11 142.202 44.2862 141.406 45.3663C140.609 46.4705 139.74 47.6467 139.233 47.6467C138.798 47.6467 138.388 47.3106 138.339 46.3985C137.784 46.9266 137.108 47.7187 136.674 47.7187C136.142 47.7187 135.418 47.2866 135.418 46.7105" fill="white"/>
<path d="M145.221 42.4622C145.221 42.4622 145.124 42.4382 145.076 42.4382C144.086 42.6782 143.144 43.8064 142.686 45.0305C144.4 43.8784 144.931 42.9902 145.197 42.4622M141.141 45.9187C141.141 43.8064 143.144 40.6859 144.666 40.6859C145.148 40.6859 145.221 41.43 145.655 41.7181C145.945 41.9101 146.476 41.9581 146.476 42.6782C146.476 43.3503 143.652 45.2226 142.444 45.8466C142.42 46.0387 142.396 46.2307 142.396 46.4227C142.396 46.7348 142.541 46.9028 142.855 46.9028C143.821 46.9028 144.931 45.8707 145.873 44.7905C146.283 44.3344 147.659 42.6302 147.925 42.2941C147.973 42.2461 147.997 42.1981 148.046 42.1981C148.166 42.1981 148.263 42.4622 148.263 42.4622C147.877 43.0623 147.056 44.2384 146.259 45.3186C145.293 46.6388 143.941 47.7429 143.048 47.7429C142.517 47.7429 141.165 46.9508 141.165 45.8707" fill="white"/>
<path d="M148.021 46.9025C150.098 42.7499 152.729 37.8052 152.874 37.2052C152.971 36.8211 153.405 36.7251 153.719 36.7251C154.371 36.7251 155.361 37.1812 155.361 37.8773C155.361 37.9973 155.337 38.1173 155.264 38.2373L154.009 42.4139C154.902 41.3577 157.848 36.8691 158.017 36.6051C158.113 36.437 158.234 36.389 158.379 36.389C159.345 36.389 160.117 37.3252 160.117 37.7332C160.117 37.9253 160.093 37.9013 159.852 38.3813C157.534 42.87 156.858 44.5502 156.085 47.4306C156.085 47.7907 155.723 47.8147 155.723 47.8147C155.337 47.8147 154.468 47.1186 154.468 46.7105C154.468 46.4945 155.723 43.23 156.737 40.4456C155.482 42.4379 153.623 45.7744 153.333 46.1824C153.261 46.3025 153.164 46.3265 153.067 46.3265C152.585 46.3265 151.884 45.3423 151.884 44.9583L152.995 41.3097C151.498 43.6861 150.05 46.4705 149.567 47.5986C149.47 47.8147 149.349 47.8627 149.253 47.8627C148.915 47.8627 148.021 47.3346 148.021 46.9265" fill="white"/>
<path d="M161.59 40.2059C161.59 40.2059 161.638 40.1099 161.783 40.0619C162.869 39.6298 162.773 38.2616 163.328 38.2616C163.932 38.2616 164.27 38.6216 164.27 39.0297C164.27 39.6298 163.594 40.3259 162.121 40.3259C161.807 40.3259 161.59 40.2779 161.59 40.2059ZM161.469 42.4622C161.469 42.4622 161.373 42.4382 161.324 42.4382C160.334 42.6782 159.393 43.8064 158.934 45.0306C160.648 43.8784 161.179 42.9903 161.469 42.4622M157.413 45.9187C157.413 43.8064 159.417 40.6859 160.938 40.6859C161.421 40.6859 161.493 41.43 161.928 41.7181C162.218 41.9101 162.749 41.9581 162.749 42.6782C162.749 43.3503 159.924 45.2226 158.693 45.8467C158.669 46.0387 158.644 46.2307 158.644 46.4228C158.644 46.7348 158.789 46.9028 159.103 46.9028C160.069 46.9028 161.179 45.8707 162.145 44.7905C162.556 44.3345 163.932 42.6302 164.197 42.2942C164.246 42.2462 164.27 42.1982 164.318 42.1982C164.439 42.1982 164.535 42.4622 164.535 42.4622C164.149 43.0623 163.328 44.2385 162.507 45.3186C161.542 46.6388 160.19 47.743 159.296 47.743C158.765 47.743 157.413 46.9508 157.413 45.8707" fill="white"/>
<path d="M161.517 48.4868C161.59 47.0706 162.483 45.5584 163.497 44.1902C163.304 43.2061 163.231 42.2939 163.231 41.9099C163.231 41.3338 163.883 40.9497 164.366 40.9497C164.68 40.9497 164.945 41.0938 164.945 41.4778C164.945 41.6938 164.945 42.0299 164.945 42.438C165.477 41.8139 165.935 41.2378 166.346 40.7337C166.394 40.6617 166.466 40.6377 166.515 40.6377C167.118 40.6377 167.456 41.4298 167.456 41.9339C167.456 42.2219 167.263 42.3419 167.118 42.4139C166.708 42.678 165.863 43.3981 164.994 44.3582C165.042 45.3904 165.211 46.3025 165.573 46.3025C165.718 46.1825 166.394 45.6544 167.046 44.8143C167.456 44.3582 168.832 42.654 169.098 42.2939C169.146 42.2459 169.17 42.2219 169.219 42.2219C169.339 42.2219 169.436 42.486 169.436 42.486C169.05 43.086 168.205 44.2622 167.408 45.3424C166.949 45.9665 166.177 46.9746 165.621 47.4067C165.501 47.5027 165.404 47.5267 165.283 47.5267C164.656 47.5267 164.173 46.6866 163.859 45.6544C163.014 46.7346 162.314 47.8867 162.145 48.7989C162.145 48.8949 162.048 48.9429 161.952 48.9429C161.759 48.9429 161.517 48.7509 161.517 48.4868" fill="white"/>
<path d="M169.629 39.9657C169.629 39.4857 170.209 38.6696 170.764 38.6696C171.392 38.6696 171.874 39.2936 171.874 39.6537C171.874 40.0137 171.367 40.8539 170.981 40.8539C170.498 40.8539 169.629 40.3978 169.629 39.9657M167.215 45.8226C167.215 44.9345 168.229 42.9662 168.736 41.646C168.857 41.3099 169.17 41.2619 169.412 41.2619C169.822 41.2619 170.474 41.718 170.474 42.1981C170.474 42.3181 170.426 42.4621 170.378 42.5341C169.339 44.0703 168.422 45.8466 168.422 46.1106C168.422 46.2306 168.47 46.3266 168.543 46.3266C168.567 46.3266 168.591 46.3267 168.639 46.2786C168.808 46.1586 169.46 45.6305 170.112 44.7904C170.522 44.3344 171.899 42.6301 172.164 42.2941C172.212 42.2461 172.237 42.1981 172.285 42.1981C172.406 42.1981 172.502 42.4621 172.502 42.4621C172.116 43.0622 171.271 44.2383 170.474 45.3185C170.015 45.9426 169.243 46.9507 168.688 47.3828C168.567 47.5028 168.446 47.5268 168.301 47.5268C167.722 47.5268 167.215 46.4227 167.215 45.7986" fill="white"/>
<path d="M170.161 45.9187C170.161 44.2865 172.092 41.6221 173.372 40.662C173.517 40.542 173.661 40.5179 173.83 40.5179C174.531 40.5179 175.086 40.926 175.086 41.5981C175.086 41.9582 175.448 42.1262 175.448 42.3662C175.448 42.4382 175.424 42.5102 175.351 42.5822C175.086 42.8943 174.168 44.1905 173.951 44.9586C173.927 45.0546 173.855 45.0786 173.782 45.0786C173.492 45.0786 172.937 44.5985 172.937 44.3345C172.937 44.2145 173.082 43.9744 173.082 43.9024C173.082 43.8064 173.034 43.7824 172.961 43.7824C172.478 43.7824 171.464 45.9427 171.464 46.5428C171.464 46.8068 171.682 46.9029 171.947 46.9029C172.913 46.9029 174.024 45.8707 174.965 44.7906C175.376 44.3345 176.752 42.6302 177.017 42.2702C177.066 42.2222 177.09 42.1742 177.138 42.1742C177.259 42.1742 177.355 42.4382 177.355 42.4382C176.969 43.0383 176.148 44.1905 175.351 45.2946C174.386 46.6148 173.203 47.863 172.02 47.863C171.368 47.863 170.185 47.0469 170.185 45.8947" fill="white"/>
<path d="M177.717 44.5982C177.644 44.4542 177.596 44.2621 177.596 44.0701C177.596 43.7821 177.669 43.446 177.862 43.038H177.813C177.21 43.038 175.713 45.1022 175.713 46.7105C175.713 46.8305 175.761 46.9025 175.858 46.9025C176.244 46.9025 177.162 45.6783 177.693 44.5982M174.723 46.2544C174.723 44.1901 176.848 40.5896 177.91 40.5896C178.224 40.5896 178.441 41.0217 178.803 41.2377C179.528 41.2377 180.035 41.8378 180.035 42.2938C180.035 42.5339 179.624 43.422 179.045 44.4061H179.069C179.455 44.4061 179.938 44.1901 180.397 43.686C180.831 43.206 181.435 42.5579 181.604 42.3178C181.652 42.2698 181.676 42.2218 181.725 42.2218C181.845 42.2218 181.942 42.4859 181.942 42.4859C181.7 42.8939 181.266 43.518 180.855 44.0941C180.276 44.9102 179.503 45.2703 178.852 45.2703C178.731 45.2703 178.634 45.2703 178.538 45.2463C177.693 46.5184 176.679 47.6946 175.979 47.6946C175.085 47.6946 174.723 47.1185 174.723 46.2784" fill="white"/>
<path d="M229.383 6.72095H231.049V13.3699H229.383V6.72095Z" fill="white"/>
<path d="M231.773 8.49726H233.415V9.07334C233.705 8.68929 234.164 8.40125 234.815 8.40125C235.805 8.40125 236.626 9.00133 236.626 10.5135V13.394H234.984V10.8016C234.984 10.2975 234.743 9.86545 234.188 9.86545C233.632 9.86545 233.415 10.2975 233.415 10.8016V13.394H231.773V8.49726Z" fill="white"/>
<path d="M237.061 12.0736L238.34 11.7375C238.413 11.9055 238.509 12.2416 238.944 12.2416C239.161 12.2416 239.354 12.1456 239.354 11.9295C239.354 11.8335 239.306 11.6895 239.041 11.6175L238.316 11.3535C237.495 11.0654 237.157 10.5374 237.157 9.91326C237.157 8.97713 238.026 8.42505 239.016 8.42505C240.006 8.42505 240.682 8.97713 240.827 9.79324L239.548 10.1053C239.451 9.72123 239.209 9.67323 239.065 9.67323C238.799 9.67323 238.727 9.84125 238.727 9.93726C238.727 10.0573 238.799 10.1773 239.065 10.2493L239.741 10.4893C240.224 10.6334 240.948 10.9934 240.948 11.9055C240.948 12.8897 240.103 13.4658 238.968 13.4658C237.954 13.4658 237.206 13.0097 237.037 12.0496L237.061 12.0736Z" fill="white"/>
<path d="M241.962 11.7617V9.79343H241.213V8.52125H241.962V7.27307H243.604V8.52125H244.642V9.79343H243.604V11.5217C243.604 11.7377 243.724 12.0258 244.207 12.0258C244.328 12.0258 244.497 12.0258 244.666 11.9537V13.1779C244.473 13.3939 244.038 13.442 243.676 13.442C242.686 13.442 241.986 12.9619 241.986 11.7617H241.962Z" fill="white"/>
<path d="M245.173 6.72095H246.815V8.11315H245.173V6.72095ZM245.173 8.4972H246.815V13.3699H245.173V8.4972Z" fill="white"/>
<path d="M248.022 11.7617V9.79343H247.273V8.52125H248.022V7.27307H249.664V8.52125H250.702V9.79343H249.664V11.5217C249.664 11.7377 249.784 12.0258 250.267 12.0258C250.388 12.0258 250.557 12.0258 250.726 11.9537V13.1779C250.533 13.3939 250.098 13.442 249.736 13.442C248.746 13.442 248.046 12.9619 248.046 11.7617H248.022Z" fill="white"/>
<path d="M256.061 13.3939H254.42V12.8178C254.13 13.2019 253.671 13.4899 253.019 13.4899C252.029 13.4899 251.208 12.8898 251.208 11.3776V8.49719H252.85V11.0896C252.85 11.5936 253.092 12.0257 253.647 12.0257C254.202 12.0257 254.42 11.5936 254.42 11.0896V8.49719H256.061V13.3699V13.3939Z" fill="white"/>
<path d="M257.317 11.7617V9.79343H256.568V8.52125H257.317V7.27307H258.959V8.52125H259.997V9.79343H258.959V11.5217C258.959 11.7377 259.079 12.0258 259.562 12.0258C259.683 12.0258 259.852 12.0258 260.021 11.9537V13.1779C259.828 13.3939 259.393 13.442 259.031 13.442C258.041 13.442 257.341 12.9619 257.341 11.7617H257.317Z" fill="white"/>
<path d="M260.262 10.9455C260.262 9.28929 261.59 8.42517 262.894 8.42517C264.198 8.42517 265.501 9.28929 265.501 10.9455C265.501 12.6018 264.173 13.4659 262.894 13.4659C261.614 13.4659 260.262 12.6018 260.262 10.9455ZM262.894 12.0257C263.449 12.0257 263.908 11.5936 263.908 10.9455C263.908 10.2974 263.449 9.86538 262.894 9.86538C262.339 9.86538 261.88 10.2974 261.88 10.9455C261.88 11.5936 262.339 12.0257 262.894 12.0257Z" fill="white"/>
<path d="M271.223 13.394V12.9379H271.199C271.199 12.9379 270.692 13.49 269.847 13.49C268.761 13.49 267.529 12.6739 267.529 10.9696C267.529 9.2654 268.761 8.44928 269.847 8.44928C270.716 8.44928 271.175 8.92935 271.199 9.00136H271.223V6.76904H272.865V13.418H271.223V13.394ZM270.185 12.0498C270.764 12.0498 271.271 11.6417 271.271 10.9456C271.271 10.2495 270.789 9.84148 270.185 9.84148C269.581 9.84148 269.123 10.2495 269.123 10.9456C269.123 11.6417 269.63 12.0498 270.185 12.0498Z" fill="white"/>
<path d="M273.348 10.9456C273.348 9.28937 274.603 8.40125 275.859 8.40125C277.114 8.40125 278.611 9.26537 278.273 11.5697H274.941C275.134 11.9538 275.569 12.1698 276.124 12.1698C276.51 12.1698 276.873 12.0978 277.235 11.8577L277.959 12.6258C277.573 13.1299 276.873 13.49 275.955 13.49C274.579 13.49 273.348 12.5778 273.348 10.9696V10.9456ZM276.848 10.4175C276.728 9.96147 276.317 9.74544 275.907 9.74544C275.496 9.74544 275.086 9.96147 274.917 10.4175H276.873H276.848Z" fill="white"/>
<path d="M278.756 6.72095H280.398V13.3699H278.756V6.72095Z" fill="white"/>
<path d="M228.828 15.7222H234.453C238.051 15.7222 240.996 18.5546 240.996 22.5391C240.996 26.5237 238.051 29.3561 234.453 29.3561H228.828V15.7222ZM234.333 26.1637C236.409 26.1637 237.447 24.6514 237.447 22.5391C237.447 20.4268 236.433 18.9146 234.333 18.9146H232.232V26.1637H234.333Z" fill="white"/>
<path d="M241.31 24.3875C241.31 21.003 243.845 19.1787 246.453 19.1787C249.06 19.1787 252.078 20.931 251.378 25.6356H244.569C244.98 26.4518 245.849 26.8358 247.008 26.8358C247.829 26.8358 248.553 26.6918 249.277 26.1877L250.75 27.7479C249.929 28.7561 248.529 29.5242 246.646 29.5242C243.821 29.5242 241.31 27.6519 241.31 24.3635V24.3875ZM248.456 23.3073C248.215 22.3712 247.346 21.9391 246.501 21.9391C245.656 21.9391 244.811 22.3712 244.449 23.3073H248.456Z" fill="white"/>
<path d="M252.198 19.3707H255.53V20.3069H255.578C255.651 20.1388 256.592 19.1787 258.355 19.1787C260.6 19.1787 263.111 20.859 263.111 24.3635C263.111 27.868 260.6 29.5482 258.355 29.5482C256.592 29.5482 255.651 28.5881 255.578 28.42H255.53V33.0047H252.198V19.3707V19.3707ZM257.655 26.5958C258.813 26.5958 259.827 25.7557 259.827 24.3394C259.827 22.9232 258.813 22.0831 257.655 22.0831C256.496 22.0831 255.458 22.8992 255.458 24.3394C255.458 25.7797 256.472 26.5958 257.655 26.5958Z" fill="white"/>
<path d="M263.376 24.3635C263.376 20.955 266.105 19.1787 268.736 19.1787C271.368 19.1787 274.072 20.955 274.072 24.3635C274.072 27.7719 271.344 29.5482 268.736 29.5482C266.129 29.5482 263.376 27.7719 263.376 24.3635ZM268.736 26.5718C269.871 26.5718 270.813 25.6836 270.813 24.3635C270.813 23.0433 269.895 22.1551 268.736 22.1551C267.577 22.1551 266.66 23.0433 266.66 24.3635C266.66 25.6836 267.577 26.5718 268.736 26.5718Z" fill="white"/>
<path d="M274.796 19.3707H278.128V22.0831C278.466 20.4269 279.432 19.1787 281.194 19.1787C281.436 19.1787 281.677 19.1787 281.943 19.2747V22.4432C281.701 22.3952 281.484 22.3712 281.218 22.3712C279.215 22.3712 278.128 23.6674 278.128 25.4676V29.3562H274.796V19.3707Z" fill="white"/>
<path d="M283.73 26.0196V21.987H282.208V19.3707H283.73V16.8263H287.061V19.3707H289.186V21.987H287.061V25.5155C287.061 25.9716 287.327 26.5477 288.268 26.5477C288.51 26.5477 288.872 26.4997 289.21 26.4037V28.924C288.824 29.3561 287.906 29.4761 287.158 29.4761C285.154 29.4761 283.705 28.516 283.705 26.0196H283.73Z" fill="white"/>
<path d="M289.5 24.3875C289.5 21.003 292.035 19.1787 294.642 19.1787C297.25 19.1787 300.268 20.931 299.568 25.6356H292.759C293.17 26.4518 294.039 26.8358 295.198 26.8358C296.019 26.8358 296.743 26.6918 297.467 26.1877L298.94 27.7479C298.119 28.7561 296.719 29.5242 294.836 29.5242C292.011 29.5242 289.5 27.6519 289.5 24.3635V24.3875ZM296.646 23.3073C296.405 22.3712 295.536 21.9391 294.691 21.9391C293.846 21.9391 293.001 22.3712 292.639 23.3073H296.646Z" fill="white"/>
<path d="M310.842 29.3561V28.42H310.794C310.721 28.588 309.78 29.5481 308.017 29.5481C305.772 29.5481 303.261 27.8679 303.261 24.3634C303.261 20.8589 305.772 19.1787 308.017 19.1787C309.78 19.1787 310.721 20.1388 310.794 20.3068H310.842V15.7222H314.174V29.3561H310.842ZM308.718 26.6197C309.925 26.6197 310.915 25.8036 310.915 24.3634C310.915 22.9232 309.901 22.1071 308.718 22.1071C307.535 22.1071 306.545 22.9472 306.545 24.3634C306.545 25.7796 307.559 26.6197 308.718 26.6197Z" fill="white"/>
<path d="M314.874 24.3875C314.874 21.003 317.409 19.1787 320.017 19.1787C322.624 19.1787 325.642 20.931 324.942 25.6356H318.133C318.544 26.4518 319.413 26.8358 320.572 26.8358C321.393 26.8358 322.117 26.6918 322.841 26.1877L324.314 27.7479C323.493 28.7561 322.093 29.5242 320.21 29.5242C317.385 29.5242 314.874 27.6519 314.874 24.3635V24.3875ZM322.02 23.3073C321.779 22.3712 320.91 21.9391 320.065 21.9391C319.22 21.9391 318.375 22.3712 318.013 23.3073H322.02Z" fill="white"/>
<path d="M325.762 15.7222H329.094V29.3561H325.762V15.7222Z" fill="white"/>
<path d="M333.657 15.7222H341.745V18.8186H337.061V20.9789H340.973V24.0274H337.061V26.2837H341.914V29.3801H333.681V15.7222H333.657Z" fill="white"/>
<path d="M342.252 26.6676L344.884 25.9475C345.029 26.2835 345.246 26.9556 346.139 26.9556C346.598 26.9556 346.984 26.7396 346.984 26.3315C346.984 26.1155 346.864 25.8515 346.357 25.7074L344.884 25.1794C343.218 24.6033 342.518 23.4991 342.518 22.2269C342.518 20.3067 344.28 19.2025 346.308 19.2025C348.337 19.2025 349.713 20.3067 350.027 21.9869L347.419 22.611C347.202 21.8429 346.719 21.7229 346.429 21.7229C345.898 21.7229 345.729 22.0589 345.729 22.275C345.729 22.515 345.874 22.779 346.453 22.923L347.83 23.4271C348.795 23.7392 350.268 24.4833 350.268 26.3555C350.268 28.3718 348.53 29.548 346.188 29.548C344.111 29.548 342.566 28.6359 342.252 26.6676V26.6676Z" fill="white"/>
<path d="M352.006 26.0196V21.987H350.485V19.3707H352.006V16.8263H355.338V19.3707H357.463V21.987H355.338V25.5155C355.338 25.9716 355.604 26.5477 356.545 26.5477C356.787 26.5477 357.149 26.4997 357.487 26.4037V28.924C357.101 29.3561 356.183 29.4761 355.435 29.4761C353.431 29.4761 351.982 28.516 351.982 26.0196H352.006Z" fill="white"/>
<path d="M357.776 24.3635C357.776 20.859 360.287 19.1787 362.533 19.1787C364.295 19.1787 365.237 20.1388 365.309 20.3069H365.357V19.3707H368.689V29.3562H365.357V28.42H365.309C365.237 28.5881 364.295 29.5482 362.533 29.5482C360.287 29.5482 357.776 27.868 357.776 24.3635ZM363.233 26.6198C364.44 26.6198 365.43 25.8037 365.43 24.3635C365.43 22.9232 364.416 22.1071 363.233 22.1071C362.05 22.1071 361.06 22.9472 361.06 24.3635C361.06 25.7797 362.074 26.6198 363.233 26.6198Z" fill="white"/>
<path d="M377.018 29.3561V28.42H376.97C376.898 28.588 375.956 29.5481 374.194 29.5481C371.948 29.5481 369.438 27.8679 369.438 24.3634C369.438 20.8589 371.948 19.1787 374.194 19.1787C375.956 19.1787 376.898 20.1388 376.97 20.3068H377.018V15.7222H380.35V29.3561H377.018ZM374.894 26.6197C376.101 26.6197 377.091 25.8036 377.091 24.3634C377.091 22.9232 376.077 22.1071 374.894 22.1071C373.711 22.1071 372.721 22.9472 372.721 24.3634C372.721 25.7796 373.735 26.6197 374.894 26.6197Z" fill="white"/>
<path d="M380.905 24.3635C380.905 20.955 383.633 19.1787 386.265 19.1787C388.897 19.1787 391.601 20.955 391.601 24.3635C391.601 27.7719 388.872 29.5482 386.265 29.5482C383.658 29.5482 380.905 27.7719 380.905 24.3635ZM386.265 26.5718C387.4 26.5718 388.341 25.6836 388.341 24.3635C388.341 23.0433 387.424 22.1551 386.265 22.1551C385.106 22.1551 384.189 23.0433 384.189 24.3635C384.189 25.6836 385.106 26.5718 386.265 26.5718Z" fill="white"/>
<path d="M235.926 47.1426V46.2065H235.877C235.805 46.3745 234.863 47.3346 233.101 47.3346C230.856 47.3346 228.345 45.6544 228.345 42.1499C228.345 38.6454 230.856 36.9652 233.101 36.9652C234.863 36.9652 235.805 37.9253 235.877 38.0933H235.926V33.5087H239.257V47.1426H235.926ZM233.801 44.4062C235.008 44.4062 235.998 43.5901 235.998 42.1499C235.998 40.7097 234.984 39.8936 233.801 39.8936C232.618 39.8936 231.628 40.7337 231.628 42.1499C231.628 43.5661 232.642 44.4062 233.801 44.4062Z" fill="white"/>
<path d="M240.03 42.174C240.03 38.7895 242.565 36.9652 245.173 36.9652C247.78 36.9652 250.798 38.7175 250.098 43.4221H243.29C243.7 44.2383 244.569 44.6223 245.728 44.6223C246.549 44.6223 247.273 44.4783 247.997 43.9742L249.47 45.5344C248.649 46.5426 247.249 47.3107 245.366 47.3107C242.541 47.3107 240.03 45.4384 240.03 42.15V42.174ZM247.177 41.0938C246.935 40.1577 246.066 39.7256 245.221 39.7256C244.376 39.7256 243.531 40.1577 243.169 41.0938H247.177Z" fill="white"/>
<path d="M262.387 33.5087L267.553 47.1426H263.884L263.208 45.1983H257.92L257.244 47.1426H253.55L258.717 33.5087H262.363H262.387ZM262.121 42.1019L260.552 37.6373L259.007 42.1019H262.121Z" fill="white"/>
<path d="M269.075 50.5513V47.935C269.557 48.247 270.571 48.391 271.344 48.391C273.227 48.391 274.072 47.4789 274.072 46.5188V46.1827H273.951C273.879 46.3507 272.962 47.3109 271.272 47.3109C269.002 47.3109 266.491 45.6066 266.491 42.1261C266.491 38.6456 269.026 36.9414 271.272 36.9414C272.962 36.9414 273.879 37.9015 273.951 38.0696H274.072V37.1334H277.404V46.2067C277.404 50.2633 274.169 51.1034 271.972 51.1034C270.958 51.1034 269.726 50.9594 269.05 50.5273L269.075 50.5513ZM271.996 44.3825C273.203 44.3825 274.169 43.5664 274.169 42.1261C274.169 40.6859 273.179 39.8698 271.996 39.8698C270.813 39.8698 269.799 40.7099 269.799 42.1261C269.799 43.5423 270.813 44.3825 271.996 44.3825Z" fill="white"/>
<path d="M288.582 47.1429H285.25V45.9667C284.671 46.7588 283.729 47.3349 282.401 47.3349C280.373 47.3349 278.683 46.0867 278.683 43.0383V37.1575H282.039V42.4622C282.039 43.4944 282.522 44.4065 283.657 44.4065C284.791 44.4065 285.25 43.4944 285.25 42.4622V37.1575H288.606V47.1429H288.582Z" fill="white"/>
<path d="M289.355 42.1502C289.355 38.6457 291.866 36.9655 294.111 36.9655C295.874 36.9655 296.815 37.9256 296.888 38.0936H296.936V37.1575H300.268V47.1429H296.936V46.2068H296.888C296.815 46.3748 295.874 47.3349 294.111 47.3349C291.866 47.3349 289.355 45.6547 289.355 42.1502ZM294.811 44.4065C296.018 44.4065 297.008 43.5904 297.008 42.1502C297.008 40.71 295.994 39.8939 294.811 39.8939C293.628 39.8939 292.638 40.734 292.638 42.1502C292.638 43.5664 293.652 44.4065 294.811 44.4065Z" fill="white"/>
<path d="M300.943 44.4544L303.575 43.7343C303.72 44.0704 303.937 44.7425 304.83 44.7425C305.289 44.7425 305.675 44.5265 305.675 44.1184C305.675 43.9024 305.555 43.6383 305.048 43.4943L303.575 42.9662C301.909 42.3902 301.209 41.286 301.209 40.0138C301.209 38.0935 302.971 36.9894 304.999 36.9894C307.027 36.9894 308.404 38.0935 308.717 39.7738L306.11 40.3979C305.893 39.6298 305.41 39.5097 305.12 39.5097C304.589 39.5097 304.42 39.8458 304.42 40.0618C304.42 40.3019 304.565 40.5659 305.144 40.7099L306.52 41.214C307.486 41.526 308.959 42.2701 308.959 44.1424C308.959 46.1587 307.221 47.3349 304.879 47.3349C302.802 47.3349 301.257 46.4227 300.943 44.4544V44.4544Z" fill="white"/>
<path d="M309.225 42.1262C309.225 38.7417 311.904 36.9655 314.609 36.9655C316.395 36.9655 317.94 37.7816 318.954 39.4138L316.54 40.998C316.105 40.446 315.478 39.9419 314.609 39.9419C313.45 39.9419 312.508 40.83 312.508 42.1262C312.508 43.4224 313.45 44.3585 314.609 44.3585C315.478 44.3585 316.105 43.8544 316.54 43.3024L318.954 44.8866C317.94 46.4948 316.395 47.3349 314.609 47.3349C311.904 47.3349 309.225 45.5587 309.225 42.1262V42.1262Z" fill="white"/>
<path d="M318.833 42.1499C318.833 38.6454 321.344 36.9652 323.59 36.9652C325.352 36.9652 326.294 37.9253 326.366 38.0934H326.414V37.1572H329.746V47.1427H326.414V46.2065H326.366C326.294 46.3746 325.352 47.3347 323.59 47.3347C321.344 47.3347 318.833 45.6545 318.833 42.1499ZM324.29 44.4063C325.497 44.4063 326.487 43.5902 326.487 42.1499C326.487 40.7097 325.473 39.8936 324.29 39.8936C323.107 39.8936 322.117 40.7337 322.117 42.1499C322.117 43.5662 323.131 44.4063 324.29 44.4063Z" fill="white"/>
<path d="M331.002 33.5087H334.334V47.1426H331.002V33.5087Z" fill="white"/>
<path d="M335.589 33.5087H338.921V36.3651H335.589V33.5087ZM335.589 37.1572H338.921V47.1426H335.589V37.1572Z" fill="white"/>
<path d="M339.693 42.174C339.693 38.7895 342.228 36.9652 344.836 36.9652C347.443 36.9652 350.461 38.7175 349.761 43.4221H342.953C343.363 44.2383 344.232 44.6223 345.391 44.6223C346.212 44.6223 346.936 44.4783 347.661 43.9742L349.133 45.5344C348.312 46.5426 346.912 47.3107 345.029 47.3107C342.204 47.3107 339.693 45.4384 339.693 42.15V42.174ZM346.84 41.0938C346.598 40.1577 345.729 39.7256 344.884 39.7256C344.039 39.7256 343.194 40.1577 342.832 41.0938H346.84Z" fill="white"/>
<path d="M350.606 37.1572H353.938V38.3334C354.517 37.5173 355.459 36.9652 356.787 36.9652C358.815 36.9652 360.505 38.2134 360.505 41.2618V47.1427H357.173V41.8379C357.173 40.8058 356.666 39.8936 355.531 39.8936C354.396 39.8936 353.938 40.8058 353.938 41.8379V47.1427H350.606V37.1572Z" fill="white"/>
<path d="M362.436 43.8061V39.7735H360.915V37.1572H362.436V34.6128H365.767V37.1572H367.892V39.7735H365.767V43.302C365.767 43.7581 366.033 44.3342 366.974 44.3342C367.216 44.3342 367.578 44.2862 367.916 44.1902V46.7105C367.53 47.1426 366.612 47.2626 365.864 47.2626C363.86 47.2626 362.411 46.3025 362.411 43.8061H362.436Z" fill="white"/>
<path d="M368.158 42.174C368.158 38.7895 370.693 36.9652 373.3 36.9652C375.908 36.9652 378.926 38.7175 378.225 43.4221H371.417C371.827 44.2383 372.697 44.6223 373.855 44.6223C374.676 44.6223 375.401 44.4783 376.125 43.9742L377.598 45.5344C376.777 46.5426 375.376 47.3107 373.493 47.3107C370.669 47.3107 368.158 45.4384 368.158 42.15V42.174ZM375.304 41.0938C375.063 40.1577 374.193 39.7256 373.348 39.7256C372.503 39.7256 371.658 40.1577 371.296 41.0938H375.304Z" fill="white"/>
<path d="M378.201 44.4543L380.833 43.7342C380.978 44.0703 381.195 44.7424 382.088 44.7424C382.547 44.7424 382.933 44.5263 382.933 44.1183C382.933 43.9022 382.813 43.6382 382.306 43.4942L380.833 42.9661C379.167 42.39 378.467 41.2859 378.467 40.0137C378.467 38.0934 380.229 36.9893 382.257 36.9893C384.285 36.9893 385.661 38.0934 385.975 39.7737L383.368 40.3977C383.15 39.6296 382.668 39.5096 382.378 39.5096C381.847 39.5096 381.678 39.8457 381.678 40.0617C381.678 40.3017 381.823 40.5658 382.402 40.7098L383.778 41.2139C384.744 41.5259 386.217 42.27 386.217 44.1423C386.217 46.1586 384.478 47.3347 382.137 47.3347C380.06 47.3347 378.515 46.4226 378.201 44.4543Z" fill="white"/>
<path d="M405 0H214.608V56H405V0ZM401.862 52.8796H217.747V3.12045H401.862V52.8796Z" fill="white"/>
</g>
<defs>
<clipPath id="clip0_404_2449">
<rect width="405" height="56" fill="white"/>
</clipPath>
</defs>
</svg>
